<svg id="Layer_1" data-name="Layer 1" xmlns="http://www.w3.org/2000/svg" viewBox="0 0 1296 1296"><defs><style>.cls-1{fill:#010101;}</style></defs><title>bredcrumb_low</title><path class="cls-1" d="M936.87,232.74c24.09-7.84,47.3-14.25,70.18-21.64,14.36-4.64,27.83-13.42,42.42-15.66,29.56-4.54,56.32,5.56,80,23.29,42.66,32,74,74.07,95.76,121.49,19.85,43.28,35.84,89.48,29.58,138.83-4.48,35.39-14,69.41-41.43,95.2-23,21.59-46.54,42.59-68.71,65-20.5,20.7-47.18,24.24-73.06,25.59-32,1.67-65.5,2.89-96-4.88-25.44-6.48-51-22.54-70.33-40.85-37.05-35.08-56.33-79.84-60.09-132.27-3.73-52,.15-103.18,18.19-150.94,14.74-39,34-78.3,73.52-103.13M874.46,442.49c2.73,26.15,3.64,52.65,8.63,78.35,6.93,35.69,26,65.81,55.32,87.07,50.26,36.46,106.49,29.06,162.42,17.33,32.33-6.78,52.92-31.07,73.8-53.59,41.23-44.46,66.88-94.89,47.36-157.35-9.94-31.82-19-65.5-36.79-92.85-19.51-29.92-47.9-54.4-74.26-79.31-7.41-7-21.56-10.57-32.15-9.74-25.07,2-49.73,8.57-74.78,11.37-54.93,6.15-85.39,42.95-103.95,88.61C886.53,365.69,882.64,402.92,874.46,442.49Z"/><path class="cls-1" d="M65.14,875.29c21.32-44.5,74.35-46.64,104.54-16,12.62,12.81,26.93,25.09,35.67,40.36,30.43,53.17-6.4,86.22-49.75,97.12-60,15.08-82.86-18.16-97.06-57.52a73.23,73.23,0,0,1,6.61-64m54.23-5.12c-7.44,3.34-16,5.34-22.11,10.28-20.38,16.32-15.15,39-7.49,57.59,5.08,12.34,19.27,26.63,31.65,29.22,43,9,69.35-15.72,60.38-52C175.15,888.49,148,878.89,119.36,870.17Z"/><path class="cls-1" d="M564.44,963.28c32.62,44,17.8,81.4-33.72,95.72-29.92,8.32-56.86,3.69-79.62-13.6-35.95-27.29-29.71-87.73,8.95-114,18.55-12.58,38.38-15.91,56.34-3,15.65,11.24,39.79,11.09,48.05,34.84m-35.81,5.12c-3.52-1.36-7.11-2.55-10.54-4.12-29.53-13.53-57.63,4.1-57,35.8.41,20.4,38.43,40.78,63.05,33.8,19.32-5.47,31.33-28.5,22.57-45.57C543.2,981.42,536.13,976.35,528.63,968.4Z"/><path class="cls-1" d="M768.05,714.65c33.28,11.74,65.36,61.92,61.19,94.59C825.49,838.67,793,855.78,752.48,849c-32.36-5.42-55.23-27.75-68.84-57.5-8.59-18.78,3.53-49.71,23-57.83,19.11-8,39.54-12.81,61.44-19m-16.37,34.79c-5.62,2.89-11.37,5.56-16.84,8.72a26.6,26.6,0,0,0-10.6,35.36c5.53,10.49,19.87,19,32,22.56,11.91,3.52,27,4.31,35.13-12C802.92,781.05,785.28,753.86,751.68,749.44Z"/><path class="cls-1" d="M1091.37,329.94c46.77,19.09,61.8,56.85,65.37,101.49,1.23,15.39,5,31.95,1,46.12-12.06,43-54.22,65.86-94.35,69.06-26.48,2.11-51.38.78-73.93-19.51-19.13-17.21-22.37-40.33-33.23-60.52-21.29-39.59-5.9-75,12.68-109.38,13.41-24.83,70.19-43.14,100.93-34.4,6.65,1.89,13,4.74,21.57,7.15m-79.81,32.74c-32.45,34.57-41.79,68.19-14.69,117.35,23.24,42.17,73.09,51.81,108.08,18.45,24.86-23.7,31.73-71.33,14.85-105.17-3.68-7.37-7-16.36-13.14-20.81C1078.54,352.29,1048.07,346.6,1011.56,362.68Z"/></svg>