<svg id="Layer_1" data-name="Layer 1" xmlns="http://www.w3.org/2000/svg" viewBox="0 0 1296 1296"><defs><style>.cls-1{fill:#010101;}</style></defs><title>cliq_low</title><path class="cls-1" d="M321.38,429c56.44-71,89-157.55,166.11-208,39-25.49,79.82-41.53,129.8-38.7,45.37,2.57,91.71-14,137.29-12.42,105.17,3.7,185.47,52,230.7,149.68,9.22,19.91,7.7,44.64,15.92,65.23,7.13,17.88,17.35,39.83,32.65,48.16,48.47,26.4,77.35,68.36,95,116.43,7.22,19.62.33,50.56-11.09,69.88-59.05,99.91-122.25,197.37-182.85,296.39-62.33,101.85-155.47,157.58-269,183.85-37.31,8.63-74.64,17.17-112.08,25.21-6.73,1.45-15.22,2.62-20.91-.16-86-42-180.64-69.23-250.37-139.38-13.78-13.86-18.43-37-26.63-56.16-8.7-20.34-17-40.86-24.76-61.58C222,843,208.26,818.78,206,793.62c-9.16-101.33,12.39-197.76,58.95-287.77,14-27.05,36-50,56.44-76.89m636.72,31.73c-7.91-47.4-8.64-97.57-25.54-141.51C910.78,262.56,855.79,243,799.68,227c-46.42-13.18-82.27-7-118.63,26.06-16.85,15.32-49.56,29.65-68.32,23.57-79.87-25.9-126.59,17-167.73,72-25.1,33.58-43.25,72.26-66.45,107.37-63.7,96.37-138.39,187.84-98.61,317.74,10.68,34.89,30.66,51.39,61.18,54.28,124.9,11.84,237.16-32.54,340.57-93.83C752.91,692,812.58,630.78,880.33,582.09c41.91-30.12,62.24-69.84,77.76-121.4M797.33,723c-67.25,56.69-142.52,101.62-225,129.73-72.79,24.81-146.86,51.4-227.09,44.81-12-1-26.45,11.11-37.13,20.24-2.83,2.42,1.38,19.36,7,24.47,88.65,80.16,181.56,145.11,312.86,115.83C752,1030.43,843.77,963.67,907.51,855c40.62-69.24,82.82-137.56,124.72-206,25.31-41.36,24.3-82.38,2.23-124.68-11.61-22.26-31.15-26.49-39.65-5.6C956.85,612,864,650.39,797.33,723Z"/></svg>