<svg id="Layer_1" data-name="Layer 1" xmlns="http://www.w3.org/2000/svg" viewBox="0 0 1296 1296"><defs><style>.cls-1{fill:#010101;}</style></defs><title>co_low</title><path class="cls-1" d="M620,526.33c18-44,52.82-68.45,93.54-86.28a89.44,89.44,0,0,1,22.72-6.17c20.32-3,40.72-5.58,61.16-7.66,17.81-1.81,33.35,5.66,48.22,14.17,36.29,20.77,55.31,55.1,71.59,91.67,6,13.41,14.3,25.81,19.83,39.38,5.11,12.54,10.3,25.84,11.25,39.11,1.82,25.59,2.84,51.61.13,77-2.48,23.28-8.18,46.23-26.1,64.79-16.69,17.29-34.44,32.53-56,42.74-7.73,3.66-16.95,4.17-25.5,6.07-28.35,6.3-56.42,4-84.58-1.89-9.09-1.9-18.71-1.35-28.09-1.79-46.23-2.18-79.85-24.2-101.81-64.6-2.73-5-4.93-10.43-8.23-15-2.39-3.34-6.2-5.67-9.38-8.45-2,4.5-5.94,9.21-5.48,13.45a225.38,225.38,0,0,0,6.93,35.78c4.84,17.57.48,31.12-16.88,38.57-15.42,6.62-32,10.72-48.33,15-11.78,3.08-24,6.31-36,6.3-9.92,0-20.05-4-29.71-7.38-15.81-5.46-30.93-13.4-47.06-17.27-12.83-3.08-27.1.1-40.08-2.62-22.81-4.79-39.72-18.07-51.63-39.08C328,730,317.73,707,318.08,681.87c.33-23.69,5.55-47.32,8.82-71,1.25-9,1.75-18.48,4.81-26.93,7.22-20,17.49-38.92,23.3-59.22,6.22-21.74,16-40.9,32.41-55.7,11.51-10.4,25.83-17.71,39-26.26,10.36-6.73,20.49-13.93,31.37-19.72,20-10.67,41.63-17.76,64.29-18,15.91-.15,32.13,2.46,47.71,6,19.55,4.49,33.92,25.76,36.67,45,3.86,27-9,49.71-16.41,73.76-3,9.69-12.2,9.74-20.61,6.9-10.82-3.66-21.62-7.48-32.13-11.93-15.24-6.44-28.85-4-40.25,7.44-13,13-26.76,25.77-37,40.8-5.8,8.51-5.93,21.28-7.33,32.3-2.89,22.83-2.26,45.16,7.44,67,10.36,23.32,29,27.39,51,23.8,17.17-2.79,34.48-5.34,51.82-6.33,13.23-.76,25.11-2.51,31.77-15.34,1.56-3,1.44-7.28,1-10.86-3.48-31.11-8.2-62.06,6.48-92.15,7-14.25,11.48-29.68,17.75-45.26m168.18-60.07c-14.13.53-28.44-.14-42.33,2-13,2-26.26,5.21-38.07,10.74-61.64,28.87-86.68,111.48-82.83,164,1.94,26.48,9.27,55.09,28.67,76.58,16.92,18.74,31.31,41.67,59.67,45.31,21.3,2.74,42.67,6,64.07,6.51,18.25.43,36.59-4.11,54.87-3.93,19,.19,33.56-9.45,48.43-18.09,21.83-12.69,29.83-35.09,36.24-58,9.26-33.06,9.41-67.38-2-98.54-11.8-32.32-30-62.88-49-91.84-17.18-26.21-40.37-46.75-77.8-34.7M447.3,712.58c-5.13-7.07-10.29-14.12-15.39-21.22-10.94-15.25-9.62-33.45-13.39-50.61-5.55-25.28-.7-49.41,5.14-72.24,7-27.34,28.38-48.78,50.37-65.2,20.95-15.64,47.4-20.63,74.66-12.39,10.31,3.12,19.46-4.18,22.89-12.78,1.92-4.8-2.23-16.56-6.68-18.61-26-12-53.79-22-81.67-8.19-15.81,7.83-29.73,20.23-43.06,32.19C411,509.71,393.82,543.86,380,579.85c-5.12,13.33-12.35,26.57-13.88,40.38-3.16,28.48,15.55,49.75,28.65,72.7,17.77,31.14,38.09,58.78,74.45,71,29.77,10,58.61,21.21,89.1,2.88,9.24-5.55,16.37-12.08,13.31-23.6-2.87-10.78-8.9-17.53-22.25-16.25-19.3,1.86-38.82,1.41-58.2,2.59-16.67,1-30.81-3.79-43.87-17M361.76,730.4c5.29,6.43,10.52,12.91,16.08,19.09.19.22,4.42-2.15,5.6-4,6.92-11.1-.07-18.34-7.71-25-5.09-4.44-10.63-8.36-16-12.52A135,135,0,0,0,361.76,730.4Z"/><path class="cls-1" d="M1232.71,892.5c-3.82,7.22-6.42,15.16-11.86,18.54-8.81,5.48-18.13,3.65-28-2.29-9.52-5.75-21.71-10.86-32.37-10.22-32.68,1.94-65.15,7.19-97.78,10.24-10.85,1-22-.7-33-1.21-4-.19-7.93-.59-11.9-.78-21.25-1.05-24.71-16.68-30-33.79-3.78-12.13-7.25-24.5-12.5-36-6.11-13.4-4-22.62,8.64-30.65,22.6-14.43,46.79-13.53,72.14-10.28,17.13,2.2,34.88,1.5,52.15-.08,10-.91,19.46-18.84,18.73-31.52-2.09-36.24-5.64-72.44-6.23-108.7-.33-20.45,4.12-41,6.26-61.46,2.4-23.07,5.14-46.13,6.43-69.27.23-4.18-5-11.22-9.14-12.64-14.71-5-30-8.35-45.19-11.93a161.85,161.85,0,0,0-24.48-4.27,122.71,122.71,0,0,0-22.93.78c-15.37,1.71-29.94-5.87-32.58-25-1.18-8.59-2.58-17.7-6.47-25.24-6.33-12.27-.07-22.29,4.66-31.61,4.82-9.48,16.11-9.78,25.27-7.3,32.95,8.94,64.72,1.76,97.23-3.52,25.68-4.17,52.35-5.81,78.17,2.28,5.84,1.83,11.73,3.6,17.38,5.94,16.52,6.85,20,20.12,19.4,36.72-1.22,33.73-3.2,67.63-1.07,101.22,1.72,27.17,9,54,13.84,80.95,1.79,9.93,3.94,19.79,5.59,29.74,3.6,21.73,8.24,43.39,10,65.28,1.15,14.15-1.69,28.68-3.31,43-2.44,21.65-6.07,43.19-7.89,64.88-1.74,20.75-12,38.21-19.23,58.21m-40.2-432.22c-5.4-22.19-12.24-28-34.71-26.39-32.34,2.38-64.63,5.56-96.87,9-5.85.63-11.57,4-16.94,6.88-2.09,1.11-4.79,5.05-4.21,6.38,1.05,2.4,4.21,5.08,6.77,5.41,18.37,2.34,36.84,3.88,55.21,6.15,14.05,1.74,28.33,3,41.93,6.66,11.38,3.07,23.22,9.59,23.34,23.25.19,21.73-1.35,43.55-3.36,65.22-3.19,34.33-9.63,68.51-10.5,102.86-.84,33.06,3.51,66.26,5.86,99.38.51,7.15,2.24,14.21,3.36,21.31,1.74,11.1-6.75,30.78-19.34,35.34-34.48,12.49-69.65,6.48-104.44,4-17.3-1.26-25.76,4.19-22.51,20.79,2.77,14.1,21.31,29.58,35.72,28.78,14.2-.78,28.31-2.94,42.5-4.07,25.62-2,51.24-4.19,76.9-5.42,12.45-.6,20.55-6.08,22.35-17.87,1.33-8.72-1.24-18-.5-26.86,1.36-16.27,5.21-32.4,5.67-48.66,1.11-39,1.26-78.09,1-117.13q-.38-64.37-2.28-128.72C1196.83,505.34,1194.3,484.15,1192.51,460.27Z"/><path class="cls-1" d="M43.22,725.19c2.35-31.34,3.36-61.55,7.51-91.32,5.23-37.44-7.41-72.32-11.57-108.4a596.8,596.8,0,0,1-3.38-82.31c.3-12.72,15-30.12,33.75-32.33,38.95-4.57,77.49,5.68,116.4,1.53,14.48-1.54,29.32.57,44,.63s28.76,12.31,24.68,25.56c-6.41,20.8-.3,40.44.28,60.57.59,20.49-7.93,30.34-27.87,30.65-14.23.22-28.47-.78-42.71-.89-23.68-.18-35.53,12.13-33.28,35,2.6,26.46,3.66,53.07,5.9,79.57,2.62,31,6.08,62,8.66,93,2.05,24.7,18.69,35.84,42.37,30.78,17.66-3.78,36.15-4,54.31-5,8-.46,19.19,12.84,19.08,23.67-.14,14.37-2.94,28.71-3.09,43.09-.18,17.76,1.5,35.53,1.66,53.3,0,4.84-1,11.06-4.06,14.32-14.28,15.28-34.06,14.37-51.82,12.12-18.6-2.35-36.91-5.44-55.82-5.39-23.76.06-47.61-3-71.27-1.79-12.57.64-22.51-2.23-33.23-7.43-12.32-6-17.86-16.57-20.17-28.33-3.7-18.83-7.54-38.1-7.26-57.13.41-27.4,4.47-54.74,6.93-83.43M123.74,750c.81-1.87,2.33-3.75,2.33-5.62,0-27.17.76-54.39-.62-81.5-1.08-21.34-4.32-42.62-7.55-63.78-3.95-25.84-8.61-51.59-13.51-77.27-2.49-13-6.75-25.76-9.11-38.82-1.61-8.91,4.33-13.12,12.57-12.14,19.06,2.26,38,6.47,57.06,7.62,16.74,1,34.69,3.39,48-11.94,5.67-6.55,5.14-13.15-1.9-16a84.81,84.81,0,0,0-28.77-5.93c-17.37-.5-34.8,1.46-52.19,1.18-13-.21-26.41-4.77-38.91-2.78-8.47,1.35-22.37,10.72-22.33,16.43.22,31.61,3.49,63.25,6.72,94.78,1.58,15.46,7.1,30.63,7.67,46,.76,20.89-1.39,41.9-2.54,62.84-.93,17-1.62,34-3.46,50.94C72.81,754.26,63.12,794,71,835c3.91,20.42,12.37,33.45,30.85,37.45,6.06,1.31,12.91-1.69,19.37-1.52,22.73.59,45.44,1.66,68.16,2.66,2.88.13,5.71,1.24,8.59,1.39,10.41.51,21.57,3.37,31.08.61,16.37-4.75,23.63-30.56,14.25-47.56-3.18-5.76-9.53-13.24-14.93-13.69a464,464,0,0,0-62.47-.64c-16.1.86-26.86-6.05-34.94-18.52-2.68-4.14-6.27-12.06-4.6-13.92,7.15-8,5.23-14.34-.24-21.6C124.69,757.82,124.56,755,123.74,750Z"/><path class="cls-1" d="M685,667.13c-3.47-8.33-6.12-16.07-9.06-23.7-12.15-31.55-9.83-63.61.78-94.35,3.64-10.56,16.44-18.43,26-26.39C720,508.28,742,508,762.87,504.34c29.28-5.15,50.46,4.7,68.85,29.12,13,17.22,25,33.88,31.35,54.45,13.89,45.26-8.46,68.65-44.4,86.55a358.72,358.72,0,0,1-51.13,20.36c-9.39,3-20,2.34-30,3-2.84.19-5.77-1.14-8.65-1.11-25.59.25-33-4.65-43.84-29.58m25.48-45.4c.1,2.65.8,5.44.2,7.92-4,16.54,15.6,39.44,32.12,37.29,23.69-3.08,45.64-11.66,65.67-24,16.07-9.91,28-24,25.75-45.09-3.53-33.52-36.07-52.92-68.21-41.76-15.9,5.52-27.14,16.13-38.64,27.61C717.18,593.85,709.56,604.15,710.49,621.73Z"/></svg>