<svg id="Layer_1" data-name="Layer 1" xmlns="http://www.w3.org/2000/svg" viewBox="0 0 1296 1296"><defs><style>.cls-1{fill:#010101;}</style></defs><title>code_low</title><path class="cls-1" d="M994.39,265.46c10.41,5.49,21.52,10.71,28.25,19.34,9.64,12.35,18.66,20.28,35.93,19.91,23.4-.5,46.87,3.27,70.34,4.29,15.64.68,23.85,9.55,18.55,22.74-18.85,46.87,2.94,87.61,14.58,130.8,6.7,24.87,4.7,52.2,5.81,78.45q3,71.36,5,142.76c.67,25.79-.71,51.64.28,77.4q4.34,114.07,10,228.1c.88,18.49,5.62,37.15,3.82,55.27-.84,8.54-12.94,16-19.93,23.89-4.66-7.62-13.09-15.12-13.35-22.89-1.35-40.74.35-81.58-.83-122.33-2.7-92.7-6.83-185.35-9.61-278-1.11-37.16-.12-74.39-.2-111.58-.06-26.87-12.76-44.53-38.49-43.95-65.25,1.47-130.41,7.31-195.66,8.9-39.22,1-78.61-1.95-117.82-4.65-29.49-2-58.74-8.07-88.23-9.46-36-1.7-72.16-1.34-108.21-.22-89.65,2.77-179.33,5.44-268.88,10.3-38,2.06-75.68,11.68-113.73,13.67-22.52,1.18-46-3.89-68.06-9.82-15.72-4.23-12.53-18.89-6.34-30,6.5-11.62,14-23.06,22.93-32.88,15.85-17.41,27.15-14.42,33.46,7.5,8.59,29.86,12.77,31.22,44.62,26.42,24-3.62,48.48-4.23,72.79-5.27,47.57-2,95.16-4,142.76-4.94,40.13-.81,46.36-5.12,60-43.53,1.41-3.95,11.14-8.35,15.71-7.22,55.78,13.71,108.8,5.56,159.24-19.93,6.84-3.46,13.72-15,13.64-22.66-.42-42.1-18.54-81.13-72-77.28-13.3,1-27-7.51-40.8-9-23.17-2.53-47-6.4-69.74-3.29s-29.81,23.91-31.44,45.1c-.64,8.27,2.1,17.51-.73,24.72s-10.69,12.12-16.34,18.06c-4.33-4.62-11.69-8.75-12.53-13.94-8.3-51.28-10.74-102.48,12.44-151.1,11.81-24.78,39.33-31.35,60.11-33.13,53.93-4.62,109.79-5.74,155,33.49,19.24,16.68,31.61,36.41,32.54,64.28.8,23.88,9,47.53,14.38,71.17.42,1.85,4.93,4.37,6.91,3.9,2.9-.69,7.6-4,7.44-5.83-1.41-16.1,7.08-18.2,20.93-19.26,27.62-2.11,31.52-12.89,22.56-39.54-6.93-20.61-20.18-40.83-8.52-65.12,9.72-20.26,25.1-28.6,46.06-29.71,39.64-2.1,78.5-.12,111.91,25.09a71.1,71.1,0,0,1,17,17.71c2.84,4.43,4.68,14.56,2.54,16.14-5.23,3.85-13.73,6.94-19.63,5.4A116.58,116.58,0,0,1,907.13,229c-19-12.34-39.38-17.86-61.33-14.27-9.53,1.56-24.78,6.45-26,12.26-2.41,11.34.25,26,6,36.44,21.35,38.53,61.3,36,97.58,40.73a57.74,57.74,0,0,0,7.49,0c15.82,0,33.84,4.59,46.69-1.58,8.89-4.27,10.64-23.4,16.83-37.13M775.85,339.14c-12.05,7.06-27.57,11.49-35.35,21.78-11.84,15.67-17.71,35.74-27.29,53.29-7.21,13.2-2.46,19.47,6.9,30.57,20.43,24.26,45.36,24.45,72.88,24.6,42.87.23,85.83,5.61,128.55,3.9,47.14-1.88,94.16-8.55,141-14.65,17.53-2.28,36.68-5.63,50.59-15.11,5-3.43-3.19-26.14-5.07-40.09-.55-4.09,1.42-9.14-.34-12.33-8.91-16.11.72-40.62-24.46-49.64-25.84-9.25-53.11-.09-70.76,21.56-10.37,12.72-25.2,26.94-40.09,29.84-36.17,7-73.52,8.28-110.46,11-12.51.91-30.18-21-28.36-33.66.1-.73,5.75-1.9,7.92-.9,43.62,20,84.24,3.42,124.79-10.62,5-1.74,7.92-9.69,11.8-14.76-4.72-1.59-9.4-3.33-14.18-4.73-6-1.74-12-4.38-18-4.54-23.53-.61-47.57-3.45-70.5.25-31.63,5.09-62,23.16-99.6,4.26M658.47,256.72c15-2.56,21-9.69,11.17-23.6-5.92-8.34-11.36-18.67-19.69-23.37-34.28-19.34-72.19-23.75-110.7-20.1-20.41,1.94-38.72,21.86-35.32,36.77,4.93,21.56,23.41,17.2,39,17.85,18.67.78,37.48.66,55.93,3.13C618.06,250,636.94,255.17,658.47,256.72Z"/><path class="cls-1" d="M149,913.57c-1.77,15.92-2.28,29.65-5.51,42.7-13.71,55.39,1.29,76.69,57,77,83.24.53,166.49-.34,249.73.36,34.28.29,68.54,4.07,102.82,4.41,21.77.22,43.55-4,65.36-4.42,43.56-.76,87.18-1.39,130.7.21,26.18,1,52.12,7.44,78.32,9.08,15,.94,30.21-4.07,45.35-4.3,44.11-.65,88.24.15,132.35-.46,13.48-.19,27.22-5.49,40.28-3.89,8.11,1,15.17,10.58,22.7,16.31-7.33,5.93-14.49,16.66-22,17-34.54,1.32-68.78,3.72-103.9-2.77-28.29-5.23-58.86,3-88.43,3.24-22.61.15-45.22-4.2-67.86-4.41-69.09-.63-138.19.36-207.27-.45-43.44-.51-86.87-4.7-130.29-4.44-82,.49-164,3.4-246,4.37a363.55,363.55,0,0,1-62.79-5.1c-19.54-3.21-32.93-14.16-30.45-36.92,3.38-31.08,8.19-62.11,9.5-93.28.94-22.51-5.9-45.5-3.87-67.78,4.71-51.53,14.59-102.6,18.74-154.16,3.13-38.87-.33-78.24,1.2-117.3.45-11.67,7.81-23.06,12-34.58,5.8,11.75,17.26,23.9,16.46,35.19-4.79,68.13-13.89,136-18.4,204.1-2.14,32.36,2.73,65.17,4.29,97.78C149.25,897.73,149,904.41,149,913.57Z"/><path class="cls-1" d="M499.88,897.33c37.56,7.91,73.62,17.45,110.23,20.6,64.93,5.58,130.16,8.17,195.32,10.32,45.68,1.51,93.46-34.11,108.48-77.81,1.75-5.09,2-12,5.6-14.88,6.42-5.23,16.08-12.49,22-10.75,6.89,2,15.13,12.38,15.91,19.84a326.39,326.39,0,0,1,.34,62.23c-1.63,18.77-15.35,26-32.54,21.26-14.9-4.11-25,2-37.9,7.59C863.38,946,837.24,957.27,812,957.34c-65.94.17-132-4.4-197.82-9.22-39.61-2.9-80-5.77-118-16.14-32.86-9-62.85-28.48-94.06-43.41-25.1-12-47.52-3.25-69.53,8.81-3.41,1.87-6.36,5.06-10,6-8.58,2.25-17.42,3.52-26.16,5.18.8-9.74-1.32-21.08,3-28.93,13.06-24,29.59-45.2,54.53-59.2,14.37-8.07,28.7-2.22,33.68,6,20.73,34.23,57.93,40.3,88.78,57.17C483.83,887.69,491.21,891.92,499.88,897.33Z"/><path class="cls-1" d="M473.66,633.84c20.16,14.52,24.08,31.77,15.21,53.17-8.24,19.88-13,41.33-22.53,60.48-4.48,9-16.53,14.26-25.16,21.21-5.82-8.26-13.63-15.78-17-24.94-6.18-16.64-13.32-34.24-13.38-51.46-.06-16.93,3.57-38.31,14.23-49.45C433.86,633.6,455.29,636.39,473.66,633.84Z"/><path class="cls-1" d="M313.82,394.08c-17.53,1.66-32.56,4.35-47.6,4.48-5.75,0-11.55-5.75-17.33-8.88,4.43-5.46,7.85-13.92,13.49-15.84,18.23-6.2,37.14-10.68,56.06-14.49a264.46,264.46,0,0,1,42.58-5c14-.5,28.42-.37,42.07,2.4,6,1.21,10.47,9.66,15.63,14.82-6.41,2.5-12.62,6-19.26,7.33C371.81,384.34,344,389.09,313.82,394.08Z"/><path class="cls-1" d="M827.05,690c-2.86,12-4.31,25.29-11.63,33-14.53,15.34-39.23,16.47-52.47-1.91-12.59-17.48-12.86-43.44.89-52.33,18.45-11.93,42.92-6.1,55,12.87C820.58,684.42,823.45,686.44,827.05,690Z"/></svg>