<svg id="Layer_1" data-name="Layer 1" xmlns="http://www.w3.org/2000/svg" viewBox="0 0 1296 1296"><defs><style>.cls-1{fill:#010101;}</style></defs><title>egg_low</title><path class="cls-1" d="M370.87,657.73c6.69-53.21,16-103.39,19.39-154,4-60.06,45.72-102.82,64.6-155.61,15.92-44.53,37-85.91,75.54-113.24C554.94,217.49,584.86,206,614,197c69-21.43,117.34,19.69,162.68,61.51,35,32.25,69.74,66.06,97.66,104.25,29.07,39.75,52.54,83.41,55.89,136.3,2.39,37.75,14.84,75,23.66,112.2,29.83,126.09,20.69,247.38-61.69,351.3-36.22,45.7-89,77.53-150.26,88.51a394.41,394.41,0,0,0-66.63,17.67c-28.9,10.66-55.13,13.46-85.3.19-42.46-18.68-89-28.13-131.16-47.4-61.32-28-94.83-82.13-103.35-146.21-5.31-39.91,6.25-82,9.59-123.14,2.47-30.48,3.91-61,5.81-94.41M761,988.09c22.79-11.4,50.25-18,67.54-35,65.27-64.15,89.84-145.22,82.7-235.27-2.21-28-11.42-55.62-19.76-82.71-4.35-14.14-11.24-35.17-21.42-38.21-20.32-6.06-42.05-1.68-55.66,22.31-9.84,17.35-39.77,12.9-50.56-4.93-18.29-30.21-13.92-79.42,10-105.92,20.49-22.7,25-45.55,9.41-74.07-18-33-36.64-66.92-46.91-102.75-19.6-68.4-109.29-81.8-154.89-44.92-34.92,28.24-69.76,58.89-80.48,108.47-9.06,41.89-27.54,81.67-38.41,123.28C454,551.27,445.91,585.58,446,619.25c.16,49.53,3.63,99.18,21.14,147.29,30.14,82.84,55.21,168.12,122.09,230.82,11.32,10.61,31.13,19.67,45.64,17.94,41.48-4.95,82.25-15.82,126.14-27.21m-330.35-57c7.79,3.6,19.63,12.23,22.61,9.84,8.61-6.92,20.66-20.24,18.62-27.47-4-14.38-14.88-28.46-26.66-38.08-3.67-3-27.23,7.84-28,14C415.82,901.77,423.76,915.26,430.67,931.13Z"/></svg>