<svg id="Layer_1" data-name="Layer 1" xmlns="http://www.w3.org/2000/svg" viewBox="0 0 1296 1296"><defs><style>.cls-1{fill:#010101;}</style></defs><title>funk_low</title><path class="cls-1" d="M167.48,359.82c19.76-27.67,48-36.12,78.14-41.34,18.78-3.25,30.58-12.46,34.51-33.73,7.8-42.24,39.14-63.33,86.46-74.45,39.38-9.25,79.11-11.21,118.48-12.79,21.86-.88,47.22,8,62.74,29.13,10.42,14.21,21.48,25.82,41.16,15.47,2-1.05,5-.11,7.59-.15C679.28,240.7,762,238,844.7,238.88c29.3.3,58.51,9.11,87.77,14,1.2.2,2.39.46,3.6.55,35.34,2.57,70.66,6.29,106,7.17,16.75.42,33.67-4.4,50.45-7.21,21.06-3.52,41.73-3.26,55,16.06,6.82,9.91,10.84,22.62,13,34.62,2.08,11.66,6.83,15,18,14.75,17.47-.4,27.08,9.36,28.44,27,.29,3.81,0,7.66.06,11.49,1.26,50.56,1.35,101.19,4.46,151.64,1.11,17.93,10.91,35.14,14.37,53.14,5.06,26.28,9.81,52.86,11.27,79.5,1.31,23.82-3.14,47.89-2.94,71.84a393.94,393.94,0,0,0,5.46,60.9c4.69,28.33,10.61,55.46-10.66,81.12-6.37,7.68-7.52,22.43-6.1,33.3,4.52,34.73-6.33,57.58-36.47,73.43-19,10-39.64,18.77-55,33-21.43,19.9-47.06,22.22-72.53,24.21-53.1,4.15-106.39,6-159.64,8-50.12,1.87-100.27,3-150.42,3.89q-129.48,2.3-259,3.8-77,.82-153.92,0c-46.1-.58-92.19-2.23-138.27-3.75-27.58-.91-55.18-2-82.7-3.89-32.64-2.25-50.45-32.58-42.1-67.72,2.51-10.57-.57-22.34.1-33.49,1.1-18.44,3.09-36.84,4.9-55.24.35-3.54,2.21-7,2.31-10.48,1.41-53.11,3-106.22,3.7-159.35.2-16.06-4-32.22-3.25-48.21,1.34-30.29,6.69-60.48,6.75-90.72a451.44,451.44,0,0,0-7.67-84.85c-6.25-32.87-.73-55.12,27.1-75.87,19.31-14.39,39.75-27.26,60.65-41.77M959.85,993.14c21.18-1.28,42.42-2,63.53-4,15.88-1.53,31.64-4.55,47.38-7.32,13.63-2.4,19.29-11.75,17.29-24.57-3.72-23.82-9.38-47.35-12.75-71.22-2.49-17.61-5.49-34.46-17.83-48.24-12.08-13.48-14.25-28-8.11-45.6,3.18-9.1,2.49-20.68.24-30.38-11.41-49.14-20.56-98.37-19.2-149.21.33-12.49-.75-26.73-6.49-37.3-11.86-21.86-9.61-40.55,2.78-60.9,16-26.29,6.23-52.91-4.27-77.83-3.63-8.63-14-17.09-23.16-20.2-22-7.46-44.73-14.24-67.67-16.69-42.86-4.58-86-14.67-129.22-4.21C762,405.21,721,392.8,680.14,402c-31.74,7.16-65.32,6.75-98.14,8.43-60.43,3.1-121,4.45-181.34,8.15-31.73,1.95-63.16,8.68-94.88,10.82C266,432.12,226,432.11,186.06,433.7c-16.1.64-32.29,4.41-48.18,3.24-20.43-1.51-30.86,7.79-27,27.77,1.73,9,3.88,18.11,3.69,27.12-.76,37.37-2.83,74.72-3.48,112.09s-.51,74.5,0,111.75c.24,16.09,4,32.21,3.33,48.2-1.51,36-5.3,71.93-7.14,107.94-1.08,21.23,2.81,43.14-1.1,63.68-3.46,18.19-.12,33.12,8.57,47.37,3.75,6.15,11.86,13,18.46,13.53,47.39,3.62,94.88,5.85,142.36,8.13,14.23.68,28.53-.18,42.79.16,48.64,1.14,97.27,3.3,145.9,3.51,33.52.15,67-2.8,100.59-3.46,81.19-1.59,162.39-2.72,243.59-3.89,19.59-.28,39.24.88,58.76-.26,29.64-1.73,59.19-4.89,92.61-7.45M431,265c-12-12.81-25.79-5.62-39.26-3.91-28.3,3.6-53.45,9.89-66.93,40.37-13,29.34,1.28,57.85,32.91,59.44,3.38.17,6.7,1.62,10,2.47-2.61,3-4.65,7.26-7.93,8.69-10.79,4.73-22.22,8-33,12.77-3.44,1.53-5.54,6.06-8.25,9.22,4.28.38,8.57,1.11,12.83,1,1.44,0,2.62-3,4.23-3.44,33.86-8.27,67.48-20.4,102.12-1.61,6,3.23,15.53,3.35,22.16,1.12,31.31-10.49,62.89-20.73,92.89-34.32,14-6.34,23.19-23.16,37.15-29.81,28.66-13.65,59.11-23.53,88.69-35.27,4-1.6,7.36-5,11-7.59-3.69-2.54-7.06-6.2-11.14-7.36-7.52-2.14-15.71-2-23.18-4.22-35.76-10.86-78.84,2.75-102.58,31.07a84.1,84.1,0,0,1-28.88,22.23c-16.62,7.46-34.59,12.07-52.21,17.07-10.37,2.95-21.12,5.41-31.83,6.09-9.45.61-13.52-5.27-9.22-14.54a122.52,122.52,0,0,1,9.46-17.12c13.3-19.69,11.86-35.19-9.11-52.33m366,55.57c-6.17,3.61-14.54,5.8-18,11.17-5.47,8.48-19,15.13-9.07,29.62,9.26,13.53,20.17,7.53,28.91,2.68,14.21-7.88,26.59-19,40.27-27.9,15.49-10.12,32-18.78,47.14-29.31,4.87-3.38,8.67-10.36,9.82-16.31.8-4.14-2.89-12.63-6.06-13.45-13.79-3.56-28.86-8.92-42.09-6.4-23,4.38-44.92,5.37-67.38-1-27.78-7.86-71.44,2.1-81,23.13-9.76,21.56-28,25.29-45.41,33.87a451.91,451.91,0,0,0-58.25,34.88c-5.16,3.59-12.38,16.79,3.14,18,43.85,3.41,83.81-8.46,119.76-34.29,23.48-16.87,47.3-33.39,72-48.43,7.41-4.52,19.39-16.84,26.48-.57,1.86,4.28-8.32,14-13.31,20.92-.8,1.12-3.33,1-7,3.36m300.85,435c3.91-1.35,8.5-1.8,11.61-4.2,24.25-18.69,46.56-40.62,72.81-55.75,19.85-11.44,26.16-25.4,24.4-45.25-.64-7.22-4.18-17.58-9.43-20s-15.34,1.59-21.39,5.64c-12.22,8.18-23,18.43-34.6,27.6-19.67,15.59-40.38,30-58.92,46.81-14.52,13.18-6.43,40.82,15.51,45.19m1.92-289.35c21.4-17.57,43.86-34.06,63.62-53.32,6.61-6.44,9.64-20.59,7.85-30-.94-4.92-16.35-10.86-24.42-9.86a269.53,269.53,0,0,0-59.1,13.8c-30.07,11-34,19.22-30,49.92.76,5.91,1.77,12,3.93,17.47,2.93,7.44,5.9,19.14,11,20.42,7.4,1.85,16.72-4,27.14-8.45m21.08-124.56c1.81-1.81,5.5-4.52,5.14-5.28-7.81-16.2-1.39-22.32,14.93-22.8,1.68,0,3.23-4.72,4.84-7.24-2.57-1-5.05-2.4-7.71-2.93-13.6-2.7-27.15-6-40.9-7.46-11.29-1.17-25.17-4-33.82,1-26,15-50.3,32.9-74.39,50.84-5.69,4.23-8.54,12.82-11.4,19.92-.73,1.8,3.54,8.09,5.47,8.08,11.11-.09,22.64.14,33.25-2.68,34.41-9.14,68.48-19.56,104.59-31.41m-30.66,321.93c5.7-3.15,12.06-5.5,17-9.57,20.49-17,39.33-36.2,61.12-51.21,18.88-13,26.41-28.71,23.12-50.12-.83-5.43-4.89-13.08-9.22-14.57-5.41-1.86-14.71-.63-18.77,3.11-32,29.52-63.74,59.44-94.15,90.6-5.61,5.75-8.59,18.84-6.18,26.46,3.24,10.26,14.52,12.34,27.11,5.31m23-115c5-6.24,9.24-13.23,15-18.57a465.53,465.53,0,0,1,36.88-31.08c12.54-9.35,22-33.27,13.32-41.57-12.19-11.67-22,0-31.41,6.95-19.58,14.47-39.87,28.16-58.14,44.15-10.85,9.5-19.24,22.22-27.19,34.5s-8.06,26.62,3.73,35.85c12.57,9.84,20.24-3.27,28.22-10.75,6-5.67,11.77-11.7,19.55-19.48M990.51,291.8c-6.45-1.22-14.64-5.58-19.05-3.14-26.52,14.68-52.75,30.09-77.66,47.31-5.44,3.76-5.14,15.84-7.49,24.08,7.11.24,14.23.56,21.34.71,5.73.12,12,1.53,17.08-.28,12.15-4.33,27.06-7.29,34.86-16.11C974.23,327.83,989.9,318,1012,318.46c2.38.05,4.81-2.14,7.21-3.29-1.51-2.68-2.44-6.05-4.64-7.92a107.15,107.15,0,0,0-24.1-15.46M1140,809.18c13.41-7.66,26.27-16.63,40.38-22.67,17.7-7.57,29-23.21,26.36-40.9-2.56-16.9-12.21-21.38-26.28-11.17-17.3,12.55-34,25.9-50.79,39.17-8.74,6.91-18.77,13.18-24.88,22-3.7,5.37-1,15.15-1.2,22.95,5.6-.44,11.45,0,16.73-1.55,5.57-1.64,10.59-5.17,19.68-7.88M235.51,402.94c7.61,0,15.43,1.13,22.79-.24,14.39-2.67,25.13-11.7,24.59-26.65s-13.48-21.57-26.18-18.54c-21,5-41.24,13.51-61.62,21-1.76.65-2.17,5-3.21,7.59,2.34.49,5.45,2.2,6.89,1.28,18-11.43,26.2,1.49,36.73,15.52m916,429.24c-9.31,6.76-19.48,12.67-27.48,20.73-2.82,2.85-2.5,12.62.28,16.24,3.36,4.38,13.24,9.38,16.18,7.53a494,494,0,0,0,54.47-39.12c3.91-3.27,3-13.34,2.51-20.14-.12-1.72-8.1-5.18-10.86-4-11.4,4.82-22.18,11.11-35.1,18.77M490.37,263.05c-2.47,9-6.36,18-6.62,27.09-.09,3,9,8.2,14.34,8.91,11.7,1.54,24.21.16,27.35-14.09,1.6-7.24,1.7-17.8-2.44-22.67-8.28-9.73-20.12-8.56-32.64.76m657.27,653.44c-3.11,19.81.39,25.06,16.91,18.41,14-5.62,26.14-16.93,37.29-27.61,3.66-3.51,5.51-12.5-7.76-14.47-21.22-3.15-30.18,13.76-46.44,23.67M1157.22,332l-6.07-5.43-4.47,6.38A21.39,21.39,0,0,0,1157.22,332Z"/><path class="cls-1" d="M606.3,837c-11,37.19-40.61,47.59-72.44,52.31-35.51,5.27-64.64,23.13-94.12,41.24-6.48,4-13.76,6.84-20.92,9.53-43.29,16.23-88.66,18.31-133.58,13.73-19-1.93-39.48-11.93-54.52-24.15-34.94-28.37-62.05-61.62-63-111.63A492.66,492.66,0,0,1,187.88,668.3c7.78-26.43,27.15-46.08,48.34-61.76C267.51,583.38,300,561.11,334.29,543c25.29-13.36,54.31-19.76,81.83-28.76,10.18-3.33,21.76-3.39,31.09-8.12,32.84-16.67,58.42,1,85.18,15.59,52.87,28.87,91.46,70.09,116.77,125.31,10.5,22.9,10.18,44.45,5.78,67.1-4.09,21.06-7.93,42.59-15.77,62.38-8.24,20.8-21.08,39.78-32.87,60.51M260.42,799.6c1.28,2,3,3.89,3.77,6.09,9,25,16.26,50.76,27.34,74.78,12.61,27.34,36.46,41,58.41,31.5,31.58-13.65,66.07-21.9,89.32-52.54,26.06-34.36,36.65-72.09,35.09-113.57-.43-11.5-7.11-24.49-14.73-33.63-14.57-17.49-30.47-34.48-48.3-48.51-41.16-32.4-54.94-35.67-96.71-10.88-14.34,8.51-23,26.32-34.94,39.23-28.35,30.65-26.43,66.63-19.25,107.55M605.34,646.3c-5.44-25.59-21.18-44.54-39.2-62.34-37.32-36.85-83.79-35.79-116.58,4.52-4,4.94-3.85,19.45.33,23.73,13,13.31,47.18,13.47,63.3,3.95,5.29-3.13,12.05-3.77,18.14-5.55-1,6.91-1.12,14.13-3.35,20.63-1.31,3.8-8,6-8.72,9.68-1.47,7.15-3.27,16.48,0,21.92,8.78,14.55,22.65,9.16,34.53,4,8.14-3.56,14.77-10.47,22.8-14.38,6.64-3.23,12.89-8.33,20.24,3.33s8.35.86,8.51-9.45M212.52,870.5c8.95,8.94,17.43,18.44,27.14,26.47,2.78,2.3,11.07,2.22,13.26-.12,2.74-2.92,3.47-9.81,2.17-14.1-9.3-30.55-21.44-60.41-28.32-91.45-3.86-17.42-.93-36.91,1.75-55,2.22-15.06,8.7-29.47,12.93-44.28.94-3.3.34-7,.45-10.56-3.08.12-6.2,0-9.24.39C209.49,685,205.91,710.67,207,731.37c1,18.8-2,37.9-4.29,56.73-1.23,10-8.13,20.12-6.71,29.3,2.69,17.4,9.52,34.16,16.55,53.1m343-174.38c-5.77,4.49-12.13,8.42-17.14,13.64-4.8,5-3.79,16.43-16.33,12.69-1.32-.39-8,9.56-7.92,14.63.06,3.65,7.25,7.19,11.25,10.77,2.38-4.47,4.85-8.89,7.09-13.42a26.53,26.53,0,0,0,1.38-5.15c.9,1.78,1.33,4.2,2.77,5.22,4.84,3.44,10.57,9.63,15,8.9,12.69-2.08,24.72-7.92,37.36-10.67,17.86-3.9,29.66-15.14,33.26-31.52,2-9-4.07-19.88-7.7-29.46-.28-.75-10.4,1.33-15.37,3.44-14.07,6-27.84,12.63-43.65,20.93m-92-141.8c-8.57-7.25-16.19-13.17-29.26-6.48-6.39,3.28-17.16-3.27-25.17-1.59a200.73,200.73,0,0,0-42.78,14.4c-2.5,1.15-2.9,16.06,0,17.88,8.29,5.23,20.52,11.92,28.05,9.23,23.21-8.3,44.95-20.71,69.17-33.44m84.31,237.61c1.49,6.6,1.92,13.78,5,19.52,1.19,2.21,8.46,1.5,13,1.5,19.41,0,26.47-16.53,34.81-29.09,3.46-5.21,5.27-22.38-9.82-19.95C574.58,766.53,556.9,770.79,547.86,791.94Z"/></svg>