<svg id="Signature" xmlns="http://www.w3.org/2000/svg" viewBox="0 0 72 72"><defs><style>.cls-1{fill:#2b2b2b;}</style></defs><title>logo</title><path class="cls-1" d="M36.71,37.15a3.08,3.08,0,0,1-3.1-4.52,1.18,1.18,0,0,0-.13-1.12,1.4,1.4,0,0,0-1.25-.06A4.22,4.22,0,0,0,31,32.73q-4.76,7.1-9.49,14.21a11.77,11.77,0,0,1-1,1.33,1.83,1.83,0,0,1-2.07.69A2,2,0,0,1,17,47a8.09,8.09,0,0,1,.51-2.72,135,135,0,0,1,8.92-18.38c2.26-4,4.39-8.1,6.58-12.16a1.81,1.81,0,0,0,.31-.87c0-.43-.1-1-.38-1.22a1.38,1.38,0,0,0-1.22.14c-4,2.69-8,5.44-12,8.12A9.86,9.86,0,0,1,17,21.11a2.9,2.9,0,0,1-1.7-.23,1.55,1.55,0,0,1-1.05-1.6A1.63,1.63,0,0,1,15.4,17.7a3.66,3.66,0,0,1,1.81-.2,4.54,4.54,0,0,0,3-.46,53.51,53.51,0,0,0,11.9-7.83c1-.82,2-1.54,3.06-2.3a4.73,4.73,0,0,1,.7-.46c.66-.33,1.39-.61,2-.05s.25,1.28,0,1.89q-4.51,9.34-9,18.66c-.9,1.85-1.81,3.69-2.67,5.56a4,4,0,0,0-.14,1.21,3.55,3.55,0,0,0,1.3-.18,18.27,18.27,0,0,0,6.18-5.87c1.85-2.91,3.44-6,5.1-9,.62-1.14,1.32-1.71,2-1.4s.6,1,.18,2.27c-1.25,3.84-2.47,7.7-3.62,11.57a2.57,2.57,0,0,0,.18,2.07c.6.68,1.44,0,2.12-.32,4.26-2.23,7.3-5.75,10-9.59Q51.67,20.1,54,17a8.76,8.76,0,0,1,1.39-1.5,1.24,1.24,0,0,1,1.78,0c.61.58.16,1.06-.17,1.55-5.6,8.24-11.24,16.45-16.76,24.75-1.93,2.9-3.55,6-5.3,9a2.4,2.4,0,0,0-.42,1,1.54,1.54,0,0,0,.36,1.11c.17.15.78,0,1-.23,1.69-1.38,3.34-2.79,5-4.22,2.61-2.27,5.19-4.56,7.8-6.83a7,7,0,0,1,.82-.62c1.62-1,2.52-.84,3.54.8,1.33,2.14,2.65,4.29,4,6.42.51.81,1,1.63.43,2.59a2.68,2.68,0,0,1-2.64,1.05c-1.61-.08-3.22-.35-4.84-.38-2,0-4.1.09-6.15.18a7.05,7.05,0,0,0-4.55,2.15q-5.68,5.34-11.33,10.71a5.09,5.09,0,0,1-1.35,1.12,2.38,2.38,0,0,1-1.8.16,2.18,2.18,0,0,1-.88-1.67,5.48,5.48,0,0,1,.81-2.43c4.32-7.21,8.68-14.4,13-21.59.13-.21.26-.43.37-.65C39,37.84,38.53,37.15,36.71,37.15ZM50.38,48.53c1.29,0,2-.44,2-1.42a2,2,0,0,0-1.89-1.93,3.29,3.29,0,0,0-3,1.26c-.7.87-.37,1.73.72,1.89C49,48.43,49.67,48.46,50.38,48.53Z"/></svg>