<svg id="Layer_1" data-name="Layer 1" xmlns="http://www.w3.org/2000/svg" viewBox="0 0 1296 1296"><defs><style>.cls-1{fill:#010101;}</style></defs><title>paint_low</title><path class="cls-1" d="M843.46,435.74c3,6.89,5,12.79,7,18.7-4.71,1.35-11.09,5.32-13.84,3.58-8.69-5.52-19.77-11.71-23.15-20.3-9.59-24.36-8.11-24.07-35.31-19.1-16.3,3-33.13,3.75-49.74,4-15.72.26-17.25,7.94-12.64,19.94,5.89,15.33,24.51,27.28,47.9,24.87,11.94-1.23,27.56,5.45,37.07,13.68,32.61,28.23,70.83,39.94,112.31,44.71,7.42.85,16,.64,21.78,4.4,6.77,4.41,16.48,14.07,15.21,18.87-2.08,7.83-11.08,15.4-19,19.54-5,2.61-13.78-.1-20.16-2.39-37.87-13.6-75.53-27.78-113.26-41.76-13.15-4.87-26.43-9.41-39.44-14.62-19.79-7.94-40.09-15-58.95-24.78-63.23-32.85-130.65-51.67-199.94-67-51.39-11.35-98.59.73-147,12.48-38.16,9.26-73.56,23.35-105.42,47-5.73,4.26-18.53,1.39-27.11-1.28-8-2.48-15.45-13.93-21.74-12.89-14.08,2.32-30.06,6.9-40.21,16.12A102.18,102.18,0,0,1,105,505c-9.27,1.56-22.72-4.58-29.85-11.68-9.13-9.1,1.58-17,8.3-23.85,16-16.32,19.45-52.44,4.73-72.19-13.54-18.16-8.6-37.83,13.71-49.17q70.28-35.72,140.37-71.84c5-2.57,9.09-6.91,13.38-10.68,15.19-13.3,37.91-7,41.89,12.67,1,4.71-3.33,13.44-7.64,15.73-18.26,9.72-34.47,21.63-56,27.62-31.74,8.82-60.56,28.49-90,44.62-4.28,2.34-6.57,10.44-7.52,16.25a70.23,70.23,0,0,0,0,23.63c1.55,8.44,3.91,22.4,8.53,23.56,15,3.78,28.88-3.37,37.84-16.31,4.93-7.13-5.68-18.36-16-18.37-3.62,0-7.24-1.75-10.86-2.7,2-3,3.87-8.58,6-8.68,32.72-1.43,51.38-40.82,87.86-32.4,3.76.87,8.91-5.57,13.17-5.26,5.36.39,13.4,2.89,15.19,6.81,10.05,21.95,26.94,24.93,42,7,17.77-21.17,36.12-41.87,54.59-62.43,3.67-4.08,8.64-8.21,13.72-9.5,5.84-1.48,12.47.16,18.76.45-1.92,4.58-2.94,9.89-5.92,13.62-13.16,16.45-27.42,32-40.09,48.84-3.94,5.22-4.14,13.27-6.06,20,6.73.22,15.06,3,19.84.09,8.64-5.32,14.69-14.64,22.66-21.28,20-16.66,40.37-32.86,60.78-49,8.85-7,17.46-15,27.5-19.59,5.84-2.7,14.32.33,21.62.77-2.38,6.75-2.89,15.43-7.49,19.88-11.31,11-24.5,20-36.92,29.76-6.47,5.11-14.24,9.27-18.93,15.69-3.83,5.25-4,13.2-5.73,20,7.69,1.84,17.35,7.52,22.68,4.78,14.76-7.59,27.7-18.72,41.39-28.39,8.66-6.12,17.13-12.56,26.15-18.11,20.45-12.58,40.81-25.42,62.08-36.47,5-2.59,13.44,1.48,20.3,2.49-2.82,6.91-3.68,16.6-8.82,20.24C580,327.29,556.23,340.81,533.65,356c-14.34,9.63-13,23,2.11,31.29,22.8,12.57,32.6,7.92,53.91-7.31,37.12-26.54,76.87-49.43,116-73,5-3,13.12-.83,19.8-1-3.12,5.9-4.88,13.4-9.6,17.42C698.09,338.49,679.25,352.44,661,367a91.24,91.24,0,0,0-11.2,11.16c-6.47,7.35-17.34,15.22-7.41,25,3,3,17.07-1.44,23.39-6.11,26-19.17,50.73-40,76.41-59.57a37.8,37.8,0,0,1,19-7.34c3.79-.3,11.87,6.51,11.44,7.69-2.8,7.59-6.15,15.77-11.72,21.38-9.82,9.89-21.48,17.95-32.09,27.1-2.43,2.09-3.73,5.49-5.55,8.29,3.34,1.49,6.74,4.38,10,4.24C755.13,398,777,397,798.85,395c18.66-1.69,30.71,3.76,34.09,24,.94,5.63,6.24,10.54,10.52,16.77M217.13,399.13l-9.89,2.45,1.49,5C212.19,404.74,215.65,402.93,217.13,399.13Z"/><path class="cls-1" d="M317.07,886.94c28.53,10.88,55.83,21.54,83.74,30.23,9,2.81,20.88,3.41,29.29-.11,26.76-11.19,53.18-5.14,80.36-4.37,36.17,1,72.79,5.06,108.79-10.09,28.6-12,61.46-13.84,90.31-25.45,24.25-9.76,46.44-25.77,67.67-41.52,16-11.85,33.1-13.42,47.58,1,16.81,16.75,33.93,33.2,50.15,50.5a84.2,84.2,0,0,1,15.31,23.23c6.84,15.52,1.36,21.89-15.61,23.27-25.47,2.08-47.26-2.79-66.46-21.77-13.68-13.52-38.47-13.87-50.51-4.34-9.4,7.45-13.28,15.92-2.49,25.82,6.79,6.23,15.51,11.93,19,19.81,3.79,8.6,2.52,19.42,3.45,29.28-9-2.09-18.88-2.5-26.82-6.64-14.75-7.69-27.5-19.56-42.64-26.05-21.26-9.12-48.53.7-59.2,19.41-2.3,4-2,11.31.09,15.68,3.17,6.68,9.29,11.9,13.49,18.19,4.74,7.1,14.19,18.28,12.11,21.44-8.38,12.7-22.74,16.89-36.53,8.77-10.14-6-22.41-13.76-26.38-23.68-10.9-27.27-31-32.49-55.75-28.36-27.83,4.65-54.11-1.15-80.49-8.19-24.79-6.61-48.47-12.58-74.4.51-11.17,5.64-28.85,2.79-42.14-1.1-24-7-44.92-18.09-63.63-37.88-23.83-25.22-55.74-42.67-83.19-64.69C200,860.12,189.49,848,180.09,835.62c-2.59-3.42.1-16.36,2.82-17.22,7.68-2.45,18.38-4,24.79-.39,23.15,13,45,28.44,67.42,42.74C288.63,869.35,302.42,877.56,317.07,886.94Z"/><path class="cls-1" d="M1006.72,577.24c21.88,9.24,41.34,19.67,61.9,27.08,7.57,2.73,19.28.86,26.31-3.47,10.09-6.21,16.73-5.22,23.37,3,15.55,19.19,30.76,38.65,46.22,57.91,2.46,3.06,5.09,6.51,8.44,8.22,5.37,2.76,11.41,4.22,17.17,6.23-1.77-5-4.37-9.9-5.11-15.06-1.16-8.08-1.06-16.34-1.5-24.52,7.15,3.42,17,5,20.9,10.64,8.29,11.86,15.81,25.28,19.4,39.16,4.58,17.7-18.81,29.25-39.62,18.33-26.65-14-52-30.45-78-45.75-22.23-13.11-44.56-26.07-66.81-39.14-19.61-11.52-39.33-22.88-58.65-34.89-3.66-2.27-5.64-7.25-8.4-11,4.5-1.24,9.23-4,13.45-3.36C992.33,571.59,998.46,574.91,1006.72,577.24Z"/><path class="cls-1" d="M960.22,461.47c7.43,6.11,14.19,10.86,20.22,16.42,8.61,8,16.75,16.43,24.87,24.89,1.09,1.14.93,3.48,1.35,5.26a32.77,32.77,0,0,1-5.56-1.8c-43.69-23.12-94.48-32.76-131.42-68.48-6.43-6.22-10-15.44-14.86-23.27,8.3,1.48,17.45,1.2,24.74,4.74C906.45,432.3,932.72,446.63,960.22,461.47Z"/><path class="cls-1" d="M206.25,512.92c-3.27-1.29-7-3.28-7.51-5.91-.93-4.65-1-10.12.8-14.33.67-1.59,10.14-2,10.83-.58,2.05,4.16,2.29,9.52,2,14.35C212.33,508.36,209.06,510.11,206.25,512.92Z"/><path class="cls-1" d="M1057.19,560.42a68.31,68.31,0,0,1-14.84-1.58l1.66-5C1048.73,555.68,1053.45,557.55,1057.19,560.42Z"/></svg>