<svg id="Layer_1" data-name="Layer 1" xmlns="http://www.w3.org/2000/svg" viewBox="0 0 850.59 47.95"><defs><style>.cls-1{fill:#010101;}</style></defs><title>tle-title</title><g id="tle-title"><path class="cls-1" d="M477.43,61.54c-4.6-6.74-6.07-13.48-1.1-20.23,1.31-1.77,3.71-2.92,5.84-3.82.82-.35,2.26.76,3.42,1.2-.42.82-.64,1.91-1.3,2.43-8.86,7-5.24,16.54,1.78,22,4.91,3.84,9.37.57,13.49-1.49C504,59.43,508,56.3,512,53.29a6.75,6.75,0,0,0,2.06-4.06c.34-2.11-.17-4.36.2-6.46.19-1.09,1.5-2,2.3-3,.86.93,2.29,1.75,2.48,2.8.62,3.3.52,6.75,1.2,10,.38,1.83,1.77,3.45,2.71,5.17,1.11-1.21,2.59-2.24,3.25-3.66,2.14-4.6,3.81-9.41,6-14,.83-1.71,2.66-2.93,4-4.37,1.29,1.69,3.07,3.21,3.78,5.12,2,5.39.05,11.84,4.35,16.69a1.71,1.71,0,0,1,0,1.33c-1,.29-2.66.91-2.94.53a95.83,95.83,0,0,1-5.32-8.16,24.46,24.46,0,0,1-1.42-3.4c-.54,1-1,2.12-1.62,3.11-2.49,4-5,8-7.58,11.84-1.84,2.73-3.64,2.35-5.91,0-5.74-5.81-5.69-5.48-12.48-.77a57.39,57.39,0,0,1-12.68,6.68C488,71.21,481.16,68.06,477.43,61.54Z" transform="translate(-225.35 -27.83)"/><path class="cls-1" d="M891.18,35.79c5.35,2,6.15,6.75,8,10.79.61,1.33,1.09,2.73,1.62,4.09.8-1.5,1.48-3.07,2.41-4.49,1.86-2.84,3.34-6.28,5.92-8.25,4.6-3.5,8.93-1.86,12,4.08,1.4,2.71,1.77,5.94,3.14,8.67,1.67,3.33,3.93,6.36,5.86,9.57a9.7,9.7,0,0,1,.7,2.39,11.67,11.67,0,0,1-3.11.1c-5.1-1.22-7.33-5.16-8.47-9.76-1-4.07-1.86-9.29-6.08-9.85-4.38-.59-5.84,4.43-7.13,8.26a52.74,52.74,0,0,1-2.92,7.27c-.47.93-1.85,2-2.71,2a4.31,4.31,0,0,1-3.11-2.07,47.84,47.84,0,0,1-3-9.24c-.71-3.54-2.5-7.82-5.53-7-2.45.64-4.35,5.41-5.42,8.7-.88,2.71,0,6-.26,8.92a9.47,9.47,0,0,1-1.86,4.18,2.57,2.57,0,0,1-2.36.73,3.29,3.29,0,0,1-1.65-2.13c-1.4-6.76-2.72-13.55-3.9-20.35a3.72,3.72,0,0,1,.92-2.94c.44-.4,2.15-.13,2.71.42,3,3,4.67,1,7-1.12C885.68,37.17,888.41,36.73,891.18,35.79Z" transform="translate(-225.35 -27.83)"/><path class="cls-1" d="M803.43,41.54c-.21-4.38,2.34-6.61,5.88-7.7,3.76-1.15,7.52-2.73,11.63-.85,4.64,2.12,5.87,6.07,2.5,9.92-1.89,2.16-4.4,3.78-6.57,5.72a14.77,14.77,0,0,0-1.7,2.19,14.5,14.5,0,0,0,2.33.95c7.68,1.7,15.37,3.33,23,5a6.82,6.82,0,0,1,3.37,1.38c.72.75,1.3,2.53.89,3.24a3.69,3.69,0,0,1-3.23,1.15c-7.58-1.72-15.09-3.71-22.65-5.5a22.17,22.17,0,0,0-4.34-.18c.09,1.35.18,2.7.26,4.05a49.58,49.58,0,0,1,.28,5.84,10,10,0,0,1-1.23,3c-.9-.89-2.3-1.62-2.63-2.69-2.16-6.94-4.07-14-6.09-20.94a36.81,36.81,0,0,0-1.74-4.62m7.75,3.75c1.72-.72,3.67-1.14,5.08-2.25,1.19-.94,1.76-2.68,2.6-4.07-1.33-.39-2.79-1.33-4-1.05a8.57,8.57,0,0,0-4.58,2.72C809.7,41.44,810.51,43.36,811.18,45.29Z" transform="translate(-225.35 -27.83)"/><path class="cls-1" d="M341.43,69c-2.5.66-4.81,1.59-7,1.38-5-.48-5.83-5.22-7.13-8.76a223.09,223.09,0,0,1-6.71-22.18c-.35-1.4,1.18-4.31,2.55-4.91A99.62,99.62,0,0,1,339.28,29c1.68-.41,3.92,1.48,5.9,2.32-1.66,1.16-3.18,2.66-5,3.4s-4,.71-6,1.1c-6.85,1.35-9.33,7.92-4.87,13.27a5,5,0,0,0,3.92,1.13c5-.63,10-1.83,15-2.26,1.58-.13,3.31,1.49,5,2.3-1.48.52-2.93,1.16-4.44,1.54-4.29,1.06-8.68,1.78-12.88,3.1-2.2.69-5.26,2.41-3.43,5.13a10.36,10.36,0,0,0,7,3.82c2.11.17,4.31-2.24,6.64-2.93,1.5-.45,3.32.13,5,.24-.49,1.26-.62,3.05-1.53,3.66C347.07,66.4,344.31,67.49,341.43,69Z" transform="translate(-225.35 -27.83)"/><path class="cls-1" d="M967.93,30c.88,1.29,1.5,2.33,2.13,3.37-1.37.21-2.84.85-4.1.58-7.62-1.65-10.72,0-12.6,7.13-1,3.63.62,5.23,4.61,4.69a4.22,4.22,0,0,1,2,0c2,.8,4,1.75,6.05,2.64-1.73,1.87-3.22,3.09-6.29,1.74-1.38-.6-5.09,1.17-5.78,2.74-.81,1.84-.08,5,1.08,6.87.83,1.35,3.65,2.45,5.31,2.15,5.53-1,10.9-2.89,16.41-4.06,1.54-.33,3.34.62,5,1-1,1.27-1.73,3.13-3,3.73-6.29,2.86-12.77,5.13-19.91,4.23a35.79,35.79,0,0,0-5.16,0c-3.84.07-4.29-2.31-4.59-5.48-.27-2.88-1.59-5.64-2.3-8.49a6.6,6.6,0,0,1,0-3c.73-3,1.82-5.95,2.39-9,.49-2.6.32-5-3.65-3.91-.95.26-2.19-.52-3.29-.82.4-1,.55-2.58,1.26-2.9,3.65-1.62,7.35-3.65,11.22-4.14C958.89,28.49,963.33,29.47,967.93,30Z" transform="translate(-225.35 -27.83)"/><path class="cls-1" d="M997.18,48.79c0,5.49.23,10.5-.13,15.47-.12,1.57-1.82,3-2.79,4.53-1-1.29-2.94-2.61-2.92-3.88.13-7.31.11-14.72,1.36-21.89.95-5.43,8.48-7.14,12.06-3,3.8,4.41,6.89,9.42,10.33,14.15.68.94,1.54,1.75,2.31,2.63a19.77,19.77,0,0,0,1.76-3.59c1.43-5.41,2.59-10.9,4.13-16.28a6.37,6.37,0,0,1,2.81-3,3,3,0,0,1,2.76.27c.39.28.09,1.72-.13,2.59-2.15,8.59-4.31,17.17-6.58,25.73A4,4,0,0,1,1020.3,65a3.32,3.32,0,0,1-3-.71c-4.8-5.79-9.39-11.74-14.15-17.56a23.17,23.17,0,0,0-3.5-2.91A46,46,0,0,0,997.18,48.79Z" transform="translate(-225.35 -27.83)"/><path class="cls-1" d="M309.18,48.79a10.77,10.77,0,0,0-.71,12.78,15.31,15.31,0,0,1,2,3.15c.29.9.15,2.73-.32,2.93-1,.44-3.09.56-3.45,0-2.06-3.25-4.52-6.57-5.34-10.2-.92-4.08-2.7-4.54-6-3.68-1.82.47-3.78.49-5.55,1.07-3.25,1.06-4.43,3.34-3.37,6.71a10.9,10.9,0,0,1,.69,3.67,3.06,3.06,0,0,1-1.34,2.31,2.56,2.56,0,0,1-2.28-1.05c-1.56-3.34-3.58-6.68-4.14-10.22a94.63,94.63,0,0,1-1-17.52c.06-2,2.2-3.92,3.39-5.88.81,1.83,2.09,3.59,2.33,5.49.39,3.11-.09,6.33.22,9.46a3.87,3.87,0,0,0,2.34,2.79c4,.61,11.22-4.05,13-7.7a24.51,24.51,0,0,1,3.12-4,28.76,28.76,0,0,0,2.45,4c1,1.15,2.44,1.89,3.43,3C309.13,46.41,309,47.46,309.18,48.79Z" transform="translate(-225.35 -27.83)"/><path class="cls-1" d="M246.18,55.79c.33-4.85.74-9.2.82-13.55,0-.26-2.75-1.15-3.87-.76-4.49,1.56-8.8,3.65-13.28,5.22-1.31.46-3-.13-4.49-.24.84-1.56,1.3-3.81,2.6-4.54a66.46,66.46,0,0,1,12.17-5.47c9.71-3.1,19.52-5.89,29.37-8.54,1.31-.35,3,.8,4.56,1.26-1,1.21-1.87,3-3.18,3.51-3,1.14-6.33,1.56-9.47,2.43-7.43,2.06-8.9,4.39-9.29,12.27-.31,6.39-1.24,12.75-2,19.12a9,9,0,0,1-1,2.3c-1-.47-2.63-.77-2.79-1.43a38,38,0,0,1-.87-7.37A29.58,29.58,0,0,1,246.18,55.79Z" transform="translate(-225.35 -27.83)"/><path class="cls-1" d="M663.18,64.79a9.51,9.51,0,0,0-.74-3.18c-1.8-2.94-4.51-5.39-1.47-9.44,1-1.32.12-4.44-.54-6.52-1.19-3.75.7-6.06,3.36-7.78a51.41,51.41,0,0,1,8.29-4,9.26,9.26,0,0,1,4.54-.92c1.27.18,2.39,1.42,3.57,2.18a18.63,18.63,0,0,1-2.7,2.66c-3.25,2.13-6.84,3.82-9.78,6.3-1,.82-.87,3.63-.41,5.3.57,2,2,3.3,4.5,1.55,1-.7,3-.43,4.38,0,1.13.35,2,1.56,3,2.39-.95.5-1.86,1.07-2.84,1.5a15.37,15.37,0,0,1-4.3,1.6c-4.24.42-4.61,3.14-3.5,6.13,1.19,3.21,3.71,5.12,7.42,4,2.34-.73,4.51-2.05,6.88-2.58,1.2-.27,2.65.64,4,1-.58,1.16-.85,2.71-1.78,3.4C676.37,74.88,668.42,73.72,663.18,64.79Z" transform="translate(-225.35 -27.83)"/><path class="cls-1" d="M1063.18,63.79c-1.33-8.94-2.6-17.4-4-25.82-.53-3.11-5.08-4.14-10-2.65a23.19,23.19,0,0,1-6.89,1.33c-1.34,0-2.66-1.48-4-2.3,1.12-1.16,2.12-3.15,3.37-3.33,5.19-.71,10.45-.94,15.69-1.21,4.6-.24,9.21-.47,13.81-.37,1.62,0,3.22,1,4.83,1.62-1.13,1.25-2.07,2.83-3.46,3.62-1,.58-2.68-.18-3.91.18-2.16.62-4.33.9-3.53,4.64,2.08,9.72,3.5,19.57,5.11,29.39a9.8,9.8,0,0,1,0,4,11.2,11.2,0,0,1-1.88,2.94c-1-.78-2.6-1.37-2.93-2.37A76.13,76.13,0,0,1,1063.18,63.79Z" transform="translate(-225.35 -27.83)"/><path class="cls-1" d="M776.18,33.79c-6.69,1.27-9.27,7.2-5.46,11.87.74.9,2.71.89,4.14,1.09.73.1,1.53-.42,2.29-.41a51.25,51.25,0,0,1,6.4.44c.31,0,.68,2,.58,2.06-1.79.74-3.7,1.2-5.46,2s-4.51,1.54-5.25,3.07.08,4.51,1.32,5.61,4,1.3,6,1.18,3.79-1.36,5.75-1.64c1.06-.16,2.79.33,3.25,1.1s-.18,3-.82,3.2c-4.65,1.67-9.36,3.41-14.2,4.18-1.25.2-3.11-2.94-4.56-4.66C768,60.3,765.93,57.71,764,55c-.66-.92-1.45-2.75-1-3.3,3.24-4.25,1-8.62.73-13a8.51,8.51,0,0,1,.58-4.35c1.7-3.22,11.66-6.88,15-5.51,1.18.48,1.93,2,2.88,3C780.35,32.54,778.51,33.16,776.18,33.79Z" transform="translate(-225.35 -27.83)"/><path class="cls-1" d="M743.93,52.54c-6.5,2.92-2.55,7.8-2.68,11.77,0,.85,1,1.83.84,2.56a19.88,19.88,0,0,1-1.88,3.92c-1-.95-2.63-1.73-2.93-2.87-1.86-7.08-3.44-14.23-5.09-21.36a8.26,8.26,0,0,0-.18-1.42c-1.4-3.15-5.18-6.44-1.67-9.75,4-3.74,9.32-4.47,14.74-3.19.6.14,1.16.41,1.75.59,8.67,2.71,9.58,6.22,3.33,13.48-1.84,2.14-4,4-6.22,6.27m-7.75-12.25,2.44,8.44a55.41,55.41,0,0,0,5.45-4.43,29.5,29.5,0,0,0,3.11-4.65c-2.19-1-4.32-2.39-6.59-2.67C739.24,36.8,737.66,38.45,736.18,40.29Z" transform="translate(-225.35 -27.83)"/><path class="cls-1" d="M693.43,69.54c1.62-5.79,2.85-11.68,5.58-16.76,2.14-4,1.79-6.08-1.69-8.44a17.22,17.22,0,0,1-4.19-4.23c-.57-.8-.3-2.19-.4-3.32,1.25-.07,2.58-.44,3.72-.12a5.78,5.78,0,0,1,3.08,2.07c3.38,5,5.66,1.7,8.11-.89.89-.94,1.81-2.58,2.76-2.61,2.24-.07,4.5.64,6.75,1a26.23,26.23,0,0,1-3.89,3.49c-5.69,3.39-6.18,6.91-2,11.77a127.51,127.51,0,0,1,9.12,12.18c.54.79-.19,2.44-.33,3.69-1.25-.31-3-.22-3.68-1-2.89-3.19-5.5-6.65-8.18-10-2.35-3-3.89-3-5.46.46-1.47,3.2-2.21,6.73-3.66,9.94C698.16,68.82,697.74,72.83,693.43,69.54Z" transform="translate(-225.35 -27.83)"/><path class="cls-1" d="M413.18,51.79c-.47-5.3-1.15-10.1-1.29-14.91,0-1.68,1.24-3.39,1.91-5.09,1.13,1.36,3.11,2.65,3.23,4.1.64,7.5.76,15,1.17,22.56.14,2.54.07,5.31,1.09,7.53,1.87,4.06,6,2.37,9,2,3.6-.41,7-2.31,10.57-3.27,1.25-.34,2.73.19,4.1.33-.66,1.16-1,2.72-2,3.41-6.81,4.69-14.33,7.35-22.57,5.22-5.07-1.31-4.5-6.5-5-10.4C412.78,59.67,413.18,56,413.18,51.79Z" transform="translate(-225.35 -27.83)"/><path class="cls-1" d="M567.43,35.54c2.42,2,2.33,3.41-.49,4.24-1.34.39-2.86.4-4,1.06-4.23,2.36-4.48,6.64-.66,9.5,1.13.85,2.29,1.67,3.47,2.44,6.16,4,6.32,9.61-.26,12.87-5.89,2.91-12.33,4.72-18.59,6.83-.68.23-1.78-.8-2.69-1.25.58-.89,1-2.25,1.77-2.6,4.09-1.76,8.31-3.19,12.44-4.87a21.88,21.88,0,0,0,4.88-2.63c2.36-1.77,2.27-2.94-.64-4.62-3.17-1.83-5.69-4.78-8.48-7.26-.36-.32-.87-.69-.94-1.1-1-5.73,3.66-8.24,6.75-11.64C562,34.23,564.33,33.1,567.43,35.54Z" transform="translate(-225.35 -27.83)"/><path class="cls-1" d="M465.93,45c.58,4.43,1.53,8.68,1.1,12.79-.56,5.34-9.42,8.78-14.16,6s-9.56-12.61-8.61-18.22c.22-1.27,1.44-2.38,2.2-3.56a18.17,18.17,0,0,1,2.67,3.44c1.7,3.78,3,7.77,4.84,11.45.63,1.22,3.52,2.71,3.9,2.38,1.72-1.5,3.74-3.45,4.14-5.53,1-5-1.75-8.8-5.48-12-1-.87-1.33-2.53-2-3.83,1.49.09,3.4-.38,4.38.37C461.42,40.14,463.47,42.57,465.93,45Z" transform="translate(-225.35 -27.83)"/><path class="cls-1" d="M604.18,31.79c3.1,2.47,5.28,4.62-.82,5.1-2.63.21-3.62,2.39-4.32,5.13-1.71,6.69,1.94,12.43,2.55,18.66,0,.13.34.26.32.35-.43,2.57,3.57,6.24-.42,7.48-3.81,1.19-4.12-3.88-4.82-6a99.51,99.51,0,0,1-3.42-17.54c-.44-3.38-.86-5.81-5.16-4.66-.79.21-1.82-.51-2.74-.8.35-.8.48-1.86,1.08-2.37C591.41,32.87,597.65,32.65,604.18,31.79Z" transform="translate(-225.35 -27.83)"/><path class="cls-1" d="M858.18,59.79c-.32,2.33,0,5.2-1.08,5.8-2.93,1.69-2.69-1.91-3.74-3.24a6.65,6.65,0,0,1-1.14-3.49c-.42-5.85-.81-11.71-.94-17.58,0-1,1.27-2,2-3.06,1,1,2.66,1.82,2.83,2.91C857,47.16,857.51,53.23,858.18,59.79Z" transform="translate(-225.35 -27.83)"/></g></svg>