<svg id="Layer_1" data-name="Layer 1" xmlns="http://www.w3.org/2000/svg" viewBox="0 0 1296 1296"><defs><style>.cls-1{fill:#010101;}</style></defs><title>tle_low</title><path class="cls-1" d="M411.34,687.14c1.31-15.44,2.18-29,4-42.37,3.61-26,7.16-52,11.87-77.82,7.34-40.17,14.41-80.46,23.88-120.15,7.91-33.17,19.61-65.43,28.65-98.35,5.7-20.76,8.53-42.33,14.68-62.93,4.83-16.18,14.26-31,19-47.19,7.8-26.46,8.07-56.65,21.26-79.68,21.67-37.87,35.1-83,77.82-106.28,31.34-17.06,59.17-9.6,87.92,7.11C768.71,99.1,815.92,158.69,856,224.11c23.45,38.28,45.1,78.55,60.71,120.47,13.84,37.17,18.38,77.83,26.72,117,6.82,32,16.14,63.9,18.91,96.3,2.64,30.86-1.61,62.33-3.15,93.52-1,20.48-4.08,41-3.6,61.4,1.48,63.62-30.3,110.43-77.42,146.86-31,24-55.34,52.06-72.27,86.1-33,66.44-69.2,130.93-110.52,192.55-29.87,44.54-67.39,77.8-121.55,90.32-49.42,11.42-122.88-18.59-135.06-86.42-3.14-17.49-8.29-34.61-12.53-51.9-6.28-25.63-14.82-51-18.25-77-3.9-29.54-2.07-59.81-5.1-89.52-1.25-12.22-6-26.08-13.89-35.16-12.18-14.1-11.18-28.39-4.6-41.8,9.6-19.58,9.3-35.87-4.3-53.44-10.79-14-10.39-27.75,1.26-44,12.9-18,20.22-40,30-62.24m325.2-161.61q-45.62,41.68-91.27,83.34c-11.8,10.73-24,21-35.69,31.87-23.29,21.68-46.24,43.7-69.5,65.41-14.54,13.57-30.93,25.49-43.74,40.49-23.94,28-61.39,45.36-66.91,88.71-1.47,11.53-1.63,20.3,7.11,23.75,8.45,3.33,21.83,4.19,28.68-.38,18.43-12.3,35-27.61,51.43-42.62,14.47-13.18,26.69-29,41.89-41.18,74.32-59.52,149.6-117.85,223.71-177.62,10.15-8.18,19.38-21.23,22.4-33.64,4.63-19,4-39.41,4.52-59.25.16-5.8-2.17-16.05-5.07-16.71-7.39-1.66-17.66-1.73-23.32,2.35-14.44,10.43-27,23.47-44.25,35.47M539.45,667.44c6.88-5.57,14.38-10.54,20.51-16.84,9.8-10.08,17.77-22.09,28.14-31.47q70-63.26,141-125.36C744.74,480,760.24,465.42,778,455c35.41-20.65,42.86-52.31,38.57-88.72-.77-6.59-10.37-13.1-17.29-17.39-2-1.24-9.64,4.65-13.4,8.52-39.94,41.11-79.08,83-119.52,123.6-37.63,37.77-76.47,74.33-115,111.26-23.8,22.84-47.66,45.63-72,67.92-17.88,16.39-36.8,31.34-44.83,56-4.19,12.85-8.54,25.43,3.55,34.66,12.9,9.84,20.46-2.87,28.21-10.52,23.82-23.51,47.39-47.28,73-72.92M502,606.34c16.72-18,32.8-36.72,50.28-54,55.26-54.59,111.19-108.5,166.47-163.07a154,154,0,0,0,23.47-29.65c15.16-25.11,30.67-50.25,42.81-76.85,4.9-10.74,6.38-28.75.49-37.3-7.73-11.23-20.17-2-28.51,7.22q-57.68,63.87-115.67,127.47c-7.52,8.24-16.42,15.27-23.52,23.83-36,43.44-71.55,87.28-107.45,130.82-20.24,24.55-40.82,48.8-61.28,73.16-8.48,10.1-7.64,18.24,2.64,27.43,10.73,9.59,17.66,1.71,24.41-3.66,8.69-6.9,16-15.55,25.85-25.42M610.4,289c-22.09,23.41-44.77,46.3-66.06,70.42-12.78,14.48-21.34,33.15-35.45,45.87-22.21,20-29.71,45.43-34.21,72.65-2,11.93-1.63,24.35-1.29,36.52s4.74,15.23,13.54,4.51c13.3-16.19,26.56-32.42,40.34-48.2Q624.47,359.49,722,248.52c9.08-10.32,20-19.06,29-29.41,12.34-14.15,9.1-43.86-6.73-55.94-12.37-9.44-25.6-5.62-35.75,4.5-9.34,9.31-16.91,20.4-25.21,30.75C659.67,227.94,636,257.5,610.4,289m106.43,752.88c3.28-45.82,6-91.7,10.1-137.44,2.18-24.21,7-48.17,10.26-72.3.52-3.86,0-8.83-2.11-11.69-1.15-1.53-7.56-.83-10.36.88-18.36,11.23-36.69,22.55-54.41,34.76-13.42,9.24-23.5,20.4-23.88,39-.39,18.75-5.53,37.38-6.2,56.15-2,56.67-3.15,113.37-3.83,170.07-.08,6.35,4.9,12.77,7.53,19.15,6.52-3.24,15.75-4.75,19.11-10,18.08-28.34,34.7-57.61,53.8-88.53M640,748.24c-14.14,10.2-29.2,19.36-42.25,30.81-31.48,27.65-62.3,56.08-92.66,85-4.93,4.69-6.14,13.3-9.08,20.1,8.88.39,17.77,1.13,26.64,1,2.73-.05,5.39-2.61,8.12-4,24.5-12.11,47.86-28.92,73.78-35.24,42.38-10.33,74.71-33.41,103.7-63.56,8.38-8.72,14.28-20.73,24-27.08,33.27-21.72,54-52,64.36-89.37,2.16-7.78.93-19.81-3.9-25.46-7.84-9.18-15.91-.25-23.07,5.6-10.67,8.71-22,16.63-32.82,25.17-31.68,25-63.25,50.05-96.83,77.07M616.32,898C611,883.79,600.9,881.15,588.08,887c-18.92,8.58-32.8,19.41-36.48,43.38-6.25,40.7-20.37,80.1-18.21,122.23,2,38.78,2.23,77.66,4.64,116.42.39,6.21,7.82,12.21,12.62,17.77,1.21,1.4,6.09,1.92,7.15.81,14.47-15.16,32.79-28.63,41.53-46.7,8.3-17.16,7.76-39.15,8.86-59.14,3.3-59.89,5.5-119.84,8.12-183.7M608.43,97.85Q590.7,125.93,573,154a43.56,43.56,0,0,0-3.94,8.2c-10.57,29.08-21.39,58.09-31.45,87.35-5.94,17.27-11.8,34.75-15.18,52.61-1,5.29,5.56,13.4,10.75,17.67,1.68,1.38,11.26-4.28,15.09-8.61,7.38-8.33,11.87-19.54,20-26.85,26.84-24.14,54.15-46.74,72.44-79.59,14.51-26.06,37.67-47.15,54.37-72.19,11.65-17.46,6.61-38.61-11.4-48.68-24.74-13.83-51.31-9.86-75.24,13.91M466.53,1130.6c1.39,6.65.74,15,4.61,19.56,7.21,8.46,17,14.67,25.79,21.82,4.32-9.42,12.78-19.12,12.19-28.22-1.83-28.05-11-56-10-83.75,1.2-33.34,9.09-66.58,15.75-99.53,4.3-21.29-2.8-33-24.14-32.7-6.69.09-13.31,2.78-20,3.69-23.45,3.15-41.73,21.84-39.15,44.37,3,26.43,8.37,52.7,14.44,78.64,5.69,24.33,13.64,48.14,20.6,76.12m461.19-575.5c-3.94-20.63-5.82-42-12.49-61.67-5.18-15.29-14.78-29.92-25.49-42.15-6-6.81-19.37-12.56-27.24-10.49-6.26,1.65-10.8,15.47-13.21,24.64-3,11.46-1.85,24-4.59,35.53-5.93,25-1.33,45.91,17.7,64.44,8,7.81,12.92,19.27,17.85,29.73,8.51,18,15.28,36.94,24.21,54.76,2.86,5.7,10.23,9.14,15.54,13.62,3.89-6.55,10.65-12.89,11.13-19.68,1.47-20.85.87-41.88.35-62.83-.18-7.34-2.45-14.63-3.76-25.89M754.28,902c0,4.58-.87,9.38.2,13.7,1.67,6.77,4.65,13.22,7.07,19.81,6.58-3.09,15.83-4.39,19.28-9.57,17-25.46,39.4-50.2,46.41-78.54,7.33-29.62-.13-63.08-2.75-94.73-.32-3.86-10.71-9.84-16.39-9.78-21.12.22-55.14,39.6-53.87,60.24,1.49,24.32,3.05,48.65,3.75,73,.21,7.27-2.39,14.62-3.71,25.87M864.65,622.11c-2.31-3.63-3.93-8.08-7.07-10.71-8-6.72-17.88-18.87-24.94-17.58-15.94,2.91-2.24,16.35-2.81,24.86-2.1,31.21,5.54,60.28,25.71,85.37,3.19,4,4.84,10.22,4.94,15.46.49,25.75-.8,51.57.65,77.24.75,13.28,16.93,18.75,24.76,8.31,12.8-17.06,25.27-35.29,32.89-55,3.81-9.84.76-27.85-6.37-35.41-24.2-25.66-37.51-56.07-47.77-92.59M841,346.18c5.26,16.13,8.92,33.05,16.44,48.05,3.75,7.48,14.85,16.3,22.07,15.83,10.44-.67,19-10.47,16.56-23.64-2-10.79-3.48-22.16-8.09-31.91-10.88-23-22.9-45.56-36-67.39-2.29-3.83-11.92-3.27-18.16-4.74-.35,5.39-1.65,10.93-.86,16.15,2.21,14.64,5.28,29.14,8,47.65M880.42,425l4.89,5.91,3-7.8C885.67,422.44,883,421.76,880.42,425Z"/><path class="cls-1" d="M600.55,166.83c1.82-6.41,2.46-12.36,5.75-14.92,4-3.09,10.59-5.23,15.29-4.21,4.06.88,10.23,7.23,9.76,10.29-.71,4.66-5.71,11.06-10.06,12.18C614.92,171.82,607.51,169.46,600.55,166.83Z"/></svg>