<svg id="Layer_1" data-name="Layer 1" xmlns="http://www.w3.org/2000/svg" viewBox="0 0 1154.11 631.37"><defs><style>.cls-1{fill:#010101;}</style></defs><title>vinci_low</title><path class="cls-1" d="M400.69,927.75c-18.07,5.94-35.34,12-53,16.38-17.25,4.26-34.94,6.65-52.4,10.08-15.88,3.12-31.58,8.09-47.59,9.29-12.24.92-25-1.8-37.21-4.58-44-10.06-81.43-31.34-109.81-67-11.72-14.74-18-31.88-20.22-50.6-1.49-12.86-4.27-25.66-4.55-38.53-.21-9.58,3.53-19.21,3.83-28.87.19-6.17-3.7-12.4-4-18.68-.64-14.86.08-29.78-.31-44.65-.23-8.69.29-18.07-2.77-25.86C67.9,672.65,73.86,665,80.8,657.93c6.58-6.74,8.86-13.83,9.94-23.16,1.71-14.75,7.1-29,9.7-43.74,5.12-28.88,26.56-40.13,50.37-50.69,19.08-8.46,36.76-20,55.16-30,37.17-20.21,77.61-30.91,118.45-40.34,3.89-.9,8.23.35,12.25-.21,11.54-1.61,21.45-4.34,29.44-15.38,7.64-10.55,19.19-18.95,30.44-26.06,20.94-13.24,45.31-22,63.89-37.79,30.37-25.78,67.85-34.62,102.65-49.59,13.51-5.81,30.09-4.63,45.32-6.21,6.08-.63,12.28.05,18.42-.13,25.47-.76,51-2.65,76.4-2.19,37.44.69,75.08,1,112.19,5.33,28,3.24,55.33,12.23,82.86,19.07,31.9,7.94,63.89,15.63,95.47,24.72,31,8.93,62,18.18,92.16,29.67,30.62,11.68,59.94,26.67,76.37,57.64,4.05,7.64,5.9,16.44,9.83,24.16a325.43,325.43,0,0,0,17.3,29.7c17.75,27.29,25.26,58.64,33.61,89.23,4.34,15.92,1.65,33.79-7.39,49.32a28.49,28.49,0,0,0-4,11.77c-1.16,16.57-7.24,24.35-24.63,27.79-15.65,3.1-31.78,8.13-47.25,6.86-31.4-2.58-62.72-7.69-93.65-13.86-39-7.78-77-7.9-114.18,7.61-15,6.23-20.56,19.39-25.34,33.34-7.73,22.57-20.44,42.13-36,60.08-18.75,21.63-36.65,44-55.79,65.3-22.57,25.1-50,41.36-84.51,45.38-11.21,1.3-22.24,7.56-32.48,13.15-18.4,10-37.5,15.93-58.59,16-14,.05-28,2.05-42,2.13-11.13.06-22.27-1.37-33.39-2.3-18.58-1.56-37.14-3.45-55.73-4.85-24.45-1.84-48.16-11-73.14-7.41-11.21,1.59-22.4,3.27-34.22,5.52M764,812.81c.82-5.4,2-10.77,2.4-16.2,1.53-19.12-3.16-37.16-9.54-55-4.61-12.86-10.68-25.83-11.81-39.11-.93-11-4.46-11.1-13.29-11.82-12.95-1.05-27.07-2.29-38.17-8.2C674,672.1,664.14,652.13,656,632.36c-6.86-16.68-18.84-23.7-36.21-17.35-25.63,9.35-52.17,7.06-78.5,7.11-13.58,0-27.17-2-40.76-2.13-9.85-.07-17.42,4.43-19.31,15.24-1.07,6.12-1.33,12.49-3.22,18.34-5.69,17.6-19.9,29.66-48.17,30.73-29.26,1.11-45.39-29.72-36.69-50.69,3.66-8.83-.51-13.08-5.14-17-30.78-25.93-66.42-39.34-106.79-38.42-12.87.29-25.65,4.2-38.52,4.49-33,.74-65,5.26-95.06,19.89-16.64,8.1-35.76,14.75-39.4,35.58-2.07,11.84-4.63,21.5-13.3,30.41-9,9.2-9.23,30.7-2,41.41,1.93,2.83,6.77,5.7,9.86,5.31,6.66-.85,14.15-2.37,19.29-6.26,6.79-5.13,14.31-12,16.61-19.61,2.46-8.13-4.9-14.83-13.14-18.47-2.09-.92-4.52-2.58-5.36-4.52A41,41,0,0,1,117.52,655c-.11-.93,2.15-3,3.44-3.09,14.3-1.14,30.89,15.85,33.61,30.39,3.79,20.3-21.31,42.58-37.68,45.5-19.32,3.46-34,17.11-31.64,39.65,2.17,21,2.85,42.1,5.15,63.06,4.12,37.53,26.47,65.12,56.34,83.59,38.08,23.55,79.66,39.75,126.84,28,32.08-8,64.8-13.43,96.92-21.29,27.08-6.63,53.43-17.41,81.88-15.56,19.94,1.3,39.74,4.77,59.61,7.18,14.06,1.71,28.17,3.07,42.21,5,9.61,1.29,19.18,4.8,28.68,4.53,21.88-.63,43.78-2.29,65.52-4.88a116.8,116.8,0,0,0,31.95-8.69A470.49,470.49,0,0,0,726,885.12,49.13,49.13,0,0,0,741.55,871c4.26-6.08,6.58-13.58,9.33-20.63,4.54-11.64,8.74-23.41,13.08-37.59M622.58,484.58c-17.6-.95-33.25,4.67-49.27,11.7-14.51,6.38-30.69,9.2-46.34,12.6-4.59,1-10.44-3.15-14.81-1.86-15.94,4.71-31.33,2.61-46.37-2.42-16.15-5.4-31.57-13.12-47.9-17.78C402,482.27,385.17,477.23,369,478c-20.56,1-41,6.93-61.24,11.78a450.42,450.42,0,0,0-103.13,38.87c-17.13,8.91-35.09,16.23-52.35,24.91-12.78,6.42-26.81,12.1-32.8,26.49-1.7,4.09.72,9.89,1.25,14.91,4-.49,8.23-.18,11.81-1.61,12-4.77,23.69-10.07,35.44-15.33,39.78-17.79,83.61-9.38,124.8-18.92,8.62-2,19.47,5.24,29.2,8.5,15.1,5.07,30.93,8.79,45,15.95,27.65,14.06,55.77,22.51,87.24,19.35,16.23-1.63,32.75-.22,49.14-.31,10.05-.06,20.12-.73,30.15-.46,21.65.6,43.82,4.9,64.8,1.57,21.67-3.44,42.79-9.49,65.11-8.65a56.61,56.61,0,0,0,20.88-2.85c13.1-4.72,24.42-1.93,33.32,7.49,9.7,10.27,17,22.84,26.88,32.9,13.39,13.63,13.07,28.7,10,45.8-1.56,8.8-1.12,19.44,2.5,27.39,9.16,20.12,20.42,39.46,22.84,61.78,1.62,15,3.24,30.7.51,45.27-2.88,15.36-11.41,29.58-16.47,44.64-1.67,5-.25,11-.24,16.55,5.84-.74,13.36.57,17.19-2.6a232.1,232.1,0,0,0,31.43-31.06c21.73-26.41,42.53-53.59,63.62-80.53,11.52-14.71,17.81-32.08,17.72-50.17-.07-12.59-6.42-25-9.12-37.75-8.08-38-30.52-66.18-60.55-89-15.08-11.45-32.06-20.5-46.63-32.51-29.77-24.54-63.17-41.93-99.68-53.33-17.17-5.36-35.06-8.41-55.08-12.51m464.68,44.26c21.39,2,40.7-3.42,59.18-14.47,10-6,12.33-11.81,9.38-23.08-7.06-27-27-42.32-49.61-52.9-29.46-13.78-59.3-26.95-92-33.14C991.72,401,970.61,390,948.61,383c-23.91-7.66-47.81-16-72.35-20.89a734.47,734.47,0,0,0-91.9-12.34c-37.09-2.54-74.4-1.65-111.59-3-30.06-1.08-59.57,2.34-89.12,7.36-33.52,5.7-64.85,17-93.78,34.64-26.22,16-52.13,32.5-77.85,49.27-4.76,3.1-8.74,8.08-11.79,13-6.47,10.42-3.76,14.15,8.29,16.53,12.68,2.51,26.85,3.9,37.18,10.66,27,17.66,55.68,12.77,84.78,11.65,17.15-.66,30.42-9.85,45.49-15.08,23.88-8.28,47.78-14.48,73.69-15.64,24.85-1.12,49.21-10,74.82-6.66,23.07,3,46.72,3,69.32,7.93,43.1,9.45,85.1,23.29,129.09,29.56,26.34,3.76,51.7,13,73.84,29.15,4.76,3.48,10.93,6.57,16.63,6.93,23.78,1.52,47.63,1.93,73.91,2.75m-49.17,145.06c7.23,2.32,14.34,5.69,21.75,6.57,4.78.57,12.61-1.11,14.34-4.33,2.19-4.07.8-11.24-1.25-16.16-2.91-7-7.89-13.11-11.82-19.69-.88-1.47-1.08-3.34-1.59-5,2.22.12,4.92-.54,6.57.49a155.69,155.69,0,0,1,17.1,12.11c6.1,5.07,11.1,5.81,19,2,8.24-4,8.68-9.29,8.49-16.33-.14-5.32-1.1-11,.37-15.86.9-3,5.42-6.36,8.76-6.91,7-1.16,14.32-.44,21.5-.76,8.29-.37,18.19-1.44,20.48,8.49,4.26,18.48,19,27.34,31.64,38.24,2.21,1.91,6.92,2.58,9.67,1.6,1.87-.67,3.36-5.26,3.28-8-.46-15-.49-30.06-2.64-44.82-1.42-9.73-5.29-21-17.07-22.15-12.9-1.29-26.22-.46-39.15,1.13-14.51,1.79-28.79,7.79-43.18,7.81-26.63,0-52.37-12.14-79.72-7-5.28,1-10.9.19-16.37.13-13.17-.15-26.46.68-39.48-.81-14.77-1.69-29-7-43.51,2.46-6,3.94-14.6,4.34-22.13,5.65C887.48,595.4,876.5,610.79,882,623c7.63,16.91,15.45,33.74,23,50.67,5.06,11.28,13.73,14.46,26.11,11.54,21.74-5.14,43.64-9.7,65.65-13.52,9.68-1.68,12.06-8,12.86-15.56s1.3-16.16-10.14-16.58c-7.53-.27-5.13-2.94-1.89-6.33,6.16-6.46,19.07-4.48,24.25,5.16,5.89,11,10.07,22.84,16.22,35.54M777.48,474.74c-2.12-.82-4.18-2.14-6.36-2.38-16.08-1.79-32.55-1.79-48.19-5.42-16.65-3.86-31.17,1.77-46.31,5.54-2.36.59-4.08,3.76-6.1,5.74,2.28,1.3,4.46,3.48,6.86,3.77,27.28,3.34,50.93,15.8,73.38,30.29,26.94,17.4,52.64,36.74,79.69,54,4.38,2.79,14.35,1,19.38-2.22,18.14-11.8,34.95-25.16,58.32-25.72,9.27-.22,18.82-3.62,27.54-7.25,10.36-4.31,10.73-14.26.69-19.16-7.75-3.78-16.69-7.35-25-7.23-24.7.36-46.88-9.23-70-15.11-20.4-5.18-40.92-9.89-63.85-14.81M898,553.42c-8.87,8.87-17.8,17.67-26.42,26.77-.45.47,1.7,4.92,2.63,4.91,3,0,5.95-1.14,8.87-2,28.14-8.54,55.43-20.22,86.09-17.6,23.29,2,46.75,1.88,70.14,2.68,2.86.1,5.73,0,8.59,0,9.14,0,18.33-.61,27.4.15,12.87,1.07,25.84,5.31,38.43,4.24,17-1.45,34.83-3.46,47.94-17.21,6.53-6.85,6.23-16.34-2-20.08-4.09-1.85-10.43-1.69-14.62.14-22.63,9.91-46.35,11.45-70.46,10.58-14.4-.52-28.78-1.5-43.16-2.43-10.31-.67-20.58-2-30.89-2.32-9-.28-18.79-1.73-26.95,1.08-23.85,8.21-48.08,11.72-75.57,11.1m-220,62.7c-.82,2.93-2.94,6.21-2.25,8.73,4.91,18,10.22,36.43,29.82,43.7,6.27,2.33,16,1.9,21.35-1.55,6.45-4.14,8-13.33,3-21-5.74-8.73-11.51-17.54-18.22-25.51-12.82-15.23-15.33-15.44-33.67-4.38m-226.2,9.83c-12.3-5.37-24.61-7.62-38.17-4-8.07,2.17-8.29.8-4.61,8.12.62,1.22-.45,3.31-.77,5-2.86,15.11,1.65,29,14.09,32.19,7.46,1.92,16.31.88,24-1,10.6-2.65,16.77-11.88,17.07-21.81.17-5.64-6.68-11.48-11.6-18.46m713,51.63c-.28-1.92,0-4.24-1-5.7-3.73-5.52-36.87-15.7-42.18-12.32-6.38,4.07-11.61,8.86-11.32,18.38.3,10,7.31,7.58,12.31,9,8.41,2.44,16.88,4.78,25.46,6.5C1158.87,695.65,1166.54,689.12,1164.71,677.58Z" transform="translate(-70.94 -332.31)"/><path class="cls-1" d="M535.91,785.15a91,91,0,0,1,11.45-2.07c-1.87,3.66-3.17,7.81-5.76,10.85-2.72,3.2-7.2,4.89-10,8.06s-6.47,9.8-5.77,10.43c4.18,3.73,9.41,6.36,14.53,8.88,1.65.81,4.23-.42,6,.25,3,1.12,7.93,2.85,8.06,4.62.24,3.22-1.5,8-4.05,9.78-14.36,9.83-32.58,6.77-39.21-8.92-7.19-17-10.87-35.66-14.84-53.87-.83-3.82,2.66-10,6-13.07,10.86-10.17,37.83-9.45,47.2.86,2.1,2.31,2.53,6.14,3.73,9.27-2.84-.68-5.75-1.15-8.51-2.07-5.38-1.79-11.07-6-15.91-5.16-5.47,1-10.14,6.43-15.16,9.93,3.68,4.69,6.8,10.07,11.32,13.74C526.95,788.22,531.79,786.17,535.91,785.15Z" transform="translate(-70.94 -332.31)"/><path class="cls-1" d="M296.2,828.17c-16.21,6.43-44.79-12.29-43-27.84.43-3.63,3.17-12,11.41-7.36,2.35,1.31,5.07,2.43,6.73,4.39,15.37,18.07,15.27,18.1,25.48-3.76,1.93-4.13,3.82-8.51,6.78-11.84,2.09-2.35,6-3.12,9-4.6,1.27,3.54,4.28,7.53,3.52,10.56C312.52,802.24,309.33,817.25,296.2,828.17Z" transform="translate(-70.94 -332.31)"/><path class="cls-1" d="M444.33,821.41c-6.58-2.89-13.33-4.61-17-8.94-6.07-7.23-10.35-16-14.94-24.4-1.28-2.33-1-5.52-1.43-8.32,3.33.77,7.41.58,9.84,2.49,7.85,6.18,14.9,13.38,22.68,19.66,2.7,2.18,6.64,2.82,10,4.16-.15-3,.1-6.15-.52-9.09-2.76-13.18,9.13-30.62,20.6-29.43,1.87.19,5.23,4.46,4.89,5-9.63,16.13-19.62,32-29.69,47.91C448.35,821.2,446.67,821.12,444.33,821.41Z" transform="translate(-70.94 -332.31)"/><path class="cls-1" d="M355.82,809.12c0-5.32-.21-9.42.08-13.48.15-2.09,1.18-4.13,1.81-6.19,2.65,1.34,7,2.15,7.63,4.12a104,104,0,0,1,4.84,23.64c.2,2.89-4,6.07-6.13,9.12-2.75-2.88-6-5.45-8.05-8.75C354.91,815.82,355.82,812.8,355.82,809.12Z" transform="translate(-70.94 -332.31)"/><path class="cls-1" d="M945.28,613c9.52,8.16,18.41,14.77,31,7.57,1.84-1.05,6.54,1.24,8.81,3.24,1.18,1,1,5.91-.38,7.18-6.82,6.43-13.34,14.47-21.62,17.76-12.69,5-32.56-12.65-31.89-26.75C931.6,613.49,937.45,611.83,945.28,613Z" transform="translate(-70.94 -332.31)"/></svg>