<svg id="Layer_1" data-name="Layer 1" xmlns="http://www.w3.org/2000/svg" viewBox="0 0 1296 1296"><defs><style>.cls-1{fill:#010101;}</style></defs><title>windows_low</title><path class="cls-1" d="M352.22,308.43c36.92,17.34,62.44,46.59,88.73,74.39,29.72,31.43,57.19,65,86.46,96.85C555.55,510.31,586,539,605.47,576.55c3.15,6.06,7.72,12.37,7.92,18.69s-3.21,13.61-7.26,18.71c-1.34,1.69-11.46-.41-14.34-3.65-15.37-17.25-28.52-36.6-44.7-53-23.84-24.16-41.78-55.47-76.42-67.24-4.09-1.39-9.47-.62-13.82.64-23.09,6.66-46.17,13.43-69,20.89-21.14,6.9-41.56,16.5-63.08,21.64-23.7,5.66-46.87,3.9-66.45-15-32.21-31.12-77-22.52-99.33,18.38-12.88,23.6-24.87,47.69-37.95,71.18a79,79,0,0,1-15.66,19.33c-9.36,8.56-21.8,12.81-32.11,4.53-9.75-7.83-4.57-19.44.63-28.9,14.64-26.64,29.24-53.3,44.41-79.63,20.67-35.88,41.3-71.8,63.08-107,9.57-15.46,22.93-28.55,32.78-43.87,11.13-17.32,17.83-38,30.79-53.54,20.87-25.12,49.58-30.09,80.57-20.37,8.7,2.73,17.2,6.11,26.71,10.12M425.29,437c0-2.46.89-5.4-.13-7.31-21.61-40.3-53.28-70.17-95.88-86.7-28.55-11.08-49.28-8.62-53.63,8.4-6,23.56-23,37.41-35.36,55.35-3.65,5.28-7.72,10.29-11.21,15.67-8.53,13.11-3.93,27.24,9.25,35.18,13.45,8.1,25.77,18.06,38.63,27.15s24.75,18.19,43,10.11c25.95-11.5,53.74-18.88,79.49-30.76C409.23,459.55,415.54,447.47,425.29,437Z"/><path class="cls-1" d="M846.12,907.76c-25.09-8.14-38-24.27-35.54-50.06,2.72-28.33,7-57,15.37-84.13,7.19-23.3,30.67-28.41,52.59-31.23,23.55-3,47.2-6.4,70.88-7.13,21.21-.66,42.56,3.48,63.78,3,28.75-.7,57.41-4.68,86.16-5.67,25.78-.89,54.61-10.53,75.6,10.39,12.53,12.49,18.76,31.47,27.14,47.89,5.95,11.65,8.53,25.77,16.64,35.37,10.41,12.32,9.92,25.32,9.16,38.87-.74,13.25-20.61,24-37.47,17.31-31.2-12.29-63.35-12.06-95.39-10.17-30.55,1.8-60.89,7.32-91.32,11.23-17.55,2.25-35.12,4.37-52.63,6.86q-38.34,5.47-76.61,11.44a272.51,272.51,0,0,0-28.35,6.09m184.06-136c-16.84,0-33.82-1.41-50.47.36-20.79,2.21-41.26,7.39-62,10.66C890.12,787.18,867,796.49,857,826.23c-6.63,19.6,2.24,39.88,19.49,37.87,26.81-3.12,53.52-7.29,80.2-11.44,28.86-4.49,57.48-11.34,86.49-13.79,37.1-3.14,74.54-2.25,111.71-4.83,6.23-.43,16.14-9.14,16.78-14.86,1-8.92-2.54-19.94-7.84-27.48-5-7.13-14.46-14.88-22.5-15.52C1105.59,773.38,1069.7,773,1030.17,771.8Z"/><path class="cls-1" d="M906.24,557.22c-6.07,30.86-29.12,34.84-52.8,36.8-13.45,1.11-27.24-1.22-40.56.47-40.63,5.16-51.07-25.33-46.89-53.55,4.84-32.64,21.37-58.89,50.31-76.16,25-14.9,59.8-4.88,72.82,22,10.38,21.46,19.46,43.72,17.12,70.43M828.55,511c-2.16,2.16-5.39,3.95-6.28,6.54-3.07,9-8.42,18.88-6.66,27.1.94,4.38,14.49,7.4,22.7,8.57,11.33,1.61,17.15-5.57,20-16.31C863.33,517.43,855.24,509.13,828.55,511Z"/><path class="cls-1" d="M657.44,724.63c-12.37-17.77-4-32.15,6.36-44.66,9.37-11.36,19-23.09,38.32-16,16.39,6,13.15,15.68,7.21,24.82a203.33,203.33,0,0,1-30.07,36.91C675.62,729.18,665.51,725.81,657.44,724.63Z"/><path class="cls-1" d="M514.08,964.18c2.19-16.24,7.69-27.82,24.2-29.69,4.58-.52,11.73-2.36,13.29-.28,2.57,3.42,2.94,9.92,1.71,14.43-2.21,8.11-5.1,16.6-10,23.24-3.66,5-12,11.1-16.27,9.84C521.62,980.12,518.29,971.58,514.08,964.18Z"/><path class="cls-1" d="M588.07,838.39c-7.4-2.3-17.43-4.19-17.68-7-.84-9.31-.64-20.38,3.88-28,3.81-6.41,13.81-10,21.79-12.73,4.67-1.59,12.5-4.78,8,9.17C599.93,813,600.35,827.47,588.07,838.39Z"/></svg>